<svg version="1.1" id="Layer_1" xmlns="http://www.w3.org/2000/svg" xmlns:xlink="http://www.w3.org/1999/xlink" x="0px" y="0px"
	 width="100%" viewBox="0 0 300 300" enable-background="new 0 0 300 300" xml:space="preserve">
<path fill="#FFFFFF" opacity="1.000000" stroke="none" 
	d="
M1.000000,167.000000 
	C1.000000,111.687042 1.000000,56.374084 1.000000,1.030564 
	C100.942795,1.030564 200.885590,1.030564 300.914185,1.030564 
	C300.914185,100.905907 300.914185,200.811920 300.914185,300.858948 
	C201.000137,300.858948 101.000099,300.858948 1.000000,300.858948 
	C1.000000,259.907593 1.000000,218.922455 1.430442,177.468658 
	C7.240564,177.000000 12.620244,177.000000 17.992477,177.398376 
	C16.446314,184.269394 16.457249,184.185852 23.338665,185.086563 
	C24.570875,185.247833 26.523752,186.258301 26.692509,187.151016 
	C27.735054,192.666138 31.302473,190.916916 34.721581,190.509933 
	C34.467640,188.123703 34.245152,186.033035 34.392311,183.952057 
	C35.502197,183.962708 36.242432,183.963654 37.250374,184.257690 
	C40.112602,184.558365 43.138119,186.727036 45.332649,183.042328 
	C46.110332,183.020172 46.554913,183.014404 47.043228,183.375107 
	C49.819870,188.399872 54.575348,187.576904 58.506195,187.124908 
	C64.266495,186.462570 69.847282,184.367950 75.587685,183.354416 
	C78.929146,182.764450 80.600311,181.204834 81.432144,177.987930 
	C83.492027,178.014328 85.272415,177.630142 86.717133,178.160461 
	C91.211227,179.810089 93.056892,177.365768 94.182755,173.725784 
	C94.653320,172.204391 94.730118,170.561203 95.357834,168.986389 
	C97.106369,170.987732 98.483017,172.976074 99.958069,175.229858 
	C100.043671,175.683609 100.030869,175.871902 100.012161,176.178070 
	C100.006241,176.295959 100.164673,176.728409 100.225204,177.047546 
	C100.233101,177.576736 100.180473,177.786804 99.874115,178.126297 
	C98.674774,179.429367 97.729141,180.603012 96.053993,182.682114 
	C98.947227,182.348190 100.509689,182.167862 102.211876,182.183456 
	C102.512543,182.674622 102.560852,182.987274 102.280502,183.692535 
	C102.529892,185.824112 102.995308,187.580490 103.460716,189.336868 
	C103.651199,195.099716 106.223076,198.870743 112.954903,201.200409 
	C113.068153,201.381897 113.097450,201.808746 113.063263,202.193451 
	C113.777573,203.302185 114.526062,204.026230 115.162056,204.739044 
	C115.049553,204.727798 115.277153,204.722977 115.163956,205.052216 
	C114.700256,206.585907 114.349739,207.790375 113.999466,209.395584 
	C113.999870,210.864975 114.000046,211.933624 113.751549,213.185532 
	C113.668617,214.244125 113.834358,215.119446 114.049744,216.336365 
	C115.268173,217.741791 116.436951,218.805649 117.605736,219.869507 
	C117.276054,219.948242 116.946373,220.026993 116.616699,220.105728 
	C116.970566,221.967331 117.324440,223.828949 117.678314,225.690552 
	C120.241066,225.061096 122.803818,224.431641 125.366570,223.802170 
	C125.384277,223.199554 125.401985,222.596924 125.419701,221.994308 
	C126.614471,222.998367 127.809242,224.002426 129.119171,225.318024 
	C129.234329,234.572586 129.234329,243.515610 129.234329,252.635864 
	C131.279221,252.314911 132.721191,252.088593 134.163834,251.909698 
	C134.164505,251.957138 134.132385,251.868820 134.086411,252.260605 
	C133.586609,259.867401 136.469223,264.886383 143.528732,267.241669 
	C148.405899,268.868896 152.815552,268.149261 156.176529,264.210876 
	C158.630310,261.335541 162.137268,258.397308 158.759033,253.587250 
	C158.889481,252.842972 159.029327,252.428558 159.528595,251.934052 
	C163.220734,248.159241 162.438492,244.100510 160.897461,239.568008 
	C160.866867,237.785324 160.877441,236.412918 161.163208,234.861481 
	C161.251648,233.773926 161.064880,232.865417 160.832153,231.529968 
	C160.901947,229.397003 161.017731,227.690979 161.352936,225.805588 
	C161.654968,225.263794 161.737579,224.901367 161.765182,224.394608 
	C161.710175,224.250275 161.854080,223.976913 162.217926,223.953552 
	C163.623245,222.590088 165.681976,221.116913 165.527145,219.933304 
	C164.911575,215.227386 167.044006,212.125900 170.203827,209.191620 
	C171.059479,208.397049 171.318970,206.960480 171.906586,205.887543 
	C171.961090,205.956512 171.818909,205.853104 172.191010,205.876205 
	C173.260620,204.821823 173.958130,203.744354 174.799713,202.663513 
	C174.943771,202.660126 174.655975,202.635605 175.031219,202.775696 
	C178.089767,203.439316 180.258743,207.725723 184.224533,204.117859 
	C182.134506,203.100586 180.641968,202.374115 179.108368,201.627670 
	C182.895859,195.276581 183.492004,195.183228 188.843750,199.730331 
	C189.299881,199.551010 189.756027,199.371689 190.212158,199.192352 
	C189.071732,196.574890 187.931305,193.957428 186.645157,191.005478 
	C188.466263,187.819000 190.654358,184.149445 192.621490,180.365051 
	C192.894745,179.839371 192.078140,178.747208 191.744675,177.561111 
	C191.738007,176.492111 191.752747,175.779266 192.113190,174.922699 
	C195.431061,171.662445 195.167953,166.690277 191.648285,163.806641 
	C190.902390,162.058456 190.399155,160.549240 190.204422,158.786240 
	C190.248444,153.591812 190.037552,148.647049 189.657974,143.715240 
	C189.604950,143.026413 188.861710,142.105240 188.201660,141.796036 
	C184.582565,140.100632 180.889816,138.562454 177.079636,136.850067 
	C176.936920,136.729843 176.833527,136.371246 176.885590,135.934082 
	C176.957397,134.330261 176.977173,133.163605 177.441818,131.995193 
	C179.668274,131.973587 181.449860,131.953720 183.473221,132.108368 
	C184.470688,132.521805 185.226379,132.760773 186.113083,133.289246 
	C187.203186,134.368073 188.162277,135.157379 189.186111,136.247528 
	C190.168442,137.377411 191.086029,138.206421 192.120956,139.261627 
	C192.536545,139.633484 192.834808,139.779114 193.081329,139.936371 
	C193.029587,139.947998 193.100449,139.869095 193.057693,140.281586 
	C191.134857,146.404831 195.747543,149.970093 197.632675,154.426224 
	C197.766891,154.743454 198.828720,154.668274 199.639053,154.917480 
	C200.025681,155.287308 200.221634,155.524200 200.299103,156.189346 
	C200.175507,158.052139 200.159515,159.495667 199.851715,161.151413 
	C200.054016,162.574097 200.548126,163.784576 201.068253,165.349564 
	C203.736511,168.102295 206.378754,170.500504 209.055023,173.294617 
	C209.790695,174.732605 210.439316,176.626801 211.202911,176.674332 
	C215.246750,176.926132 219.327774,176.828918 223.373306,176.538330 
	C223.982910,176.494537 224.473740,174.797272 225.342926,173.890106 
	C226.436996,173.670792 227.207672,173.426208 228.326019,173.188339 
	C229.102798,173.355270 229.531891,173.515488 229.993790,173.996735 
	C230.883667,174.843643 231.707596,175.655884 232.613388,175.760681 
	C232.999649,175.805359 233.556915,174.372238 234.386993,173.454712 
	C235.501755,173.267792 236.266037,173.236832 237.298569,173.460358 
	C240.707565,174.181763 243.848282,174.648666 247.034760,175.399048 
	C247.400284,175.983154 247.720062,176.283783 248.039825,176.584412 
	C248.363770,176.097702 248.687714,175.610992 249.423798,175.090576 
	C251.213837,175.013458 252.591721,174.970016 254.163879,175.195206 
	C255.238083,174.970749 256.118011,174.477676 257.388123,173.978607 
	C260.182587,173.307755 262.586823,172.642883 265.153870,172.209564 
	C265.884155,171.997711 266.451569,171.554337 267.298370,171.047821 
	C268.117554,170.515839 268.657349,170.046997 269.567810,169.464478 
	C270.971222,169.312820 272.003937,169.274841 273.299103,169.482056 
	C275.970398,169.435028 278.379272,169.142822 281.160278,168.873566 
	C286.741455,165.840546 287.745819,163.581177 285.985077,158.606415 
	C289.212585,153.844955 285.854980,149.517227 285.907227,144.783722 
	C284.594055,143.617584 283.281036,142.825470 281.983398,142.022400 
	C281.998779,142.011414 281.966736,142.042206 281.946655,141.688873 
	C280.890533,140.592987 279.854492,139.850433 278.608429,139.114105 
	C278.398376,139.120346 277.980835,139.072418 277.937195,138.721283 
	C276.590454,138.258575 275.287354,138.146988 273.705139,138.037140 
	C272.959106,138.274109 272.492188,138.509308 271.667908,138.767181 
	C270.609161,138.669083 269.907776,138.548309 269.174652,138.244446 
	C269.142914,138.061325 268.983429,137.725601 268.840454,137.556152 
	C268.462311,137.182358 268.188965,137.075638 267.416809,137.076019 
	C258.856812,137.415436 250.708313,137.305817 242.672318,138.203415 
	C235.185211,139.039688 227.836502,141.059555 220.384598,142.305618 
	C218.505035,142.619919 216.463974,141.968475 214.497131,141.760818 
	C215.482117,139.631454 215.905563,136.402954 217.549393,135.563110 
	C224.640305,131.940369 232.220078,129.283707 239.367203,125.758919 
	C245.483398,122.742561 251.762787,119.629112 254.901520,112.927711 
	C254.956299,113.008209 254.861801,112.839943 255.243607,112.909927 
	C256.784210,112.225479 258.186951,111.683151 259.059418,110.679749 
	C262.773804,106.408035 260.539215,101.631180 260.329041,96.944687 
	C262.693329,92.767609 261.134796,90.936935 254.624191,89.932465 
	C253.837357,88.931740 253.321976,88.082390 252.861404,86.850540 
	C253.723816,84.819923 254.531433,83.171806 255.339050,81.523689 
	C255.298111,81.054222 255.257172,80.584755 255.216232,80.115288 
	C249.061630,84.636841 242.811569,84.400284 236.531738,80.404068 
	C237.693283,83.413589 238.351715,85.119576 238.638763,86.886963 
	C236.823822,87.292633 235.380264,87.636887 233.658112,87.856277 
	C232.586807,88.150284 231.794083,88.569153 230.782990,89.140991 
	C230.443802,89.615150 230.322983,89.936333 229.953735,90.412445 
	C229.141113,90.713303 228.576904,90.859230 227.641739,90.957939 
	C226.525177,90.948601 225.779587,90.986481 224.614761,91.017548 
	C216.658371,90.955818 212.059891,95.003128 209.341675,101.906586 
	C209.280273,102.491211 209.107635,102.765930 208.439392,102.978073 
	C205.595673,102.413368 203.147598,101.848412 201.420593,101.449860 
	C201.420593,103.601196 202.222488,106.175743 201.276505,107.403099 
	C197.872421,111.819695 196.415771,106.171730 192.397507,104.645187 
	C193.663849,107.724625 194.408493,109.535416 195.325027,111.764214 
	C190.795349,112.423363 186.166107,113.097000 181.536865,113.770630 
	C181.592255,113.993233 181.647659,114.215836 181.703049,114.438431 
	C183.457047,114.908409 185.211044,115.378387 186.965027,115.848366 
	C186.866333,116.344688 186.767639,116.841019 186.668945,117.337341 
	C182.844818,117.934807 179.008759,118.617317 175.815125,114.596191 
	C176.003723,113.849106 176.162384,113.434250 176.645386,112.965225 
	C179.010712,111.596077 181.051712,110.281097 184.055145,108.346031 
	C183.426071,101.020180 187.443115,93.549561 191.411163,85.903084 
	C192.661499,83.493660 191.696564,79.934647 191.755432,76.536751 
	C191.875565,75.451759 191.985794,74.731804 192.449951,73.935600 
	C192.795868,72.215012 192.787842,70.570656 192.735748,68.571220 
	C192.980286,67.084328 193.268875,65.952522 193.988647,64.870872 
	C195.825790,64.832169 197.231735,64.743309 197.957779,64.697426 
	C198.300690,62.002438 198.341751,59.945072 198.849106,58.009960 
	C200.526337,51.612942 198.675720,48.880497 192.816422,49.148323 
	C192.914032,49.041107 192.752411,49.281872 192.792770,48.908974 
	C191.065231,41.069729 183.108475,43.000450 179.255630,39.340420 
	C173.455597,42.345749 167.972610,45.186794 161.942001,48.311600 
	C165.388535,54.430035 160.503983,58.900455 157.780548,63.742851 
	C156.510605,63.662731 155.472046,63.919987 154.417923,64.037170 
	C151.278183,64.386200 148.132324,64.680222 144.990768,64.622513 
	C144.993301,63.502975 144.993896,62.756653 144.996216,61.560181 
	C145.243683,58.194889 145.703125,55.274067 145.625961,52.367489 
	C145.596695,51.265198 144.453491,49.386978 143.607071,49.259148 
	C140.786331,48.833138 137.869949,49.040352 134.573547,49.005299 
	C133.323441,49.054909 132.490005,49.104107 131.366394,49.184158 
	C130.724106,49.065411 130.371994,48.915817 129.961304,48.395943 
	C126.611710,42.899113 117.921059,43.924072 112.908966,50.139778 
	C112.809456,50.261410 112.498085,50.218536 112.089951,50.151684 
	C108.037849,49.197807 104.814857,48.583492 106.495728,54.399151 
	C106.884995,55.745983 106.145164,57.680565 105.387619,59.046783 
	C103.384216,62.659893 104.046814,65.885368 106.271652,69.453384 
	C106.293640,70.865410 106.248909,71.895409 105.869614,73.196312 
	C105.358269,77.401222 105.363800,81.354416 104.952316,85.263725 
	C104.557434,89.015388 103.730217,92.721550 103.033638,96.794769 
	C104.941368,96.666321 106.188988,96.582314 107.630402,96.485268 
	C108.256409,99.688049 107.952820,103.692329 113.122009,103.305786 
	C113.254128,104.032463 113.269241,104.459244 112.954315,105.120049 
	C112.597725,106.940338 112.386208,108.549194 112.576637,110.108978 
	C113.402443,116.873009 117.631912,123.442123 113.009865,130.638077 
	C114.422318,130.808380 115.211838,130.903580 115.950989,131.340393 
	C113.938072,133.129440 111.975533,134.576889 110.006287,135.604736 
	C108.314178,131.124619 106.628777,127.064102 105.317566,122.957581 
	C106.374260,121.661530 107.056755,120.411491 107.739258,119.161453 
	C107.078697,118.814743 106.418137,118.468033 105.757584,118.121323 
	C105.170860,119.433334 104.584129,120.745338 103.700294,121.907387 
	C101.589951,120.170761 99.776711,118.584084 98.270584,116.853302 
	C99.330864,115.910278 100.084030,115.111366 100.837204,114.312454 
	C100.358780,114.665779 99.880356,115.019104 99.401939,115.372429 
	C98.084595,113.467857 96.767250,111.563286 95.015060,109.030037 
	C94.642685,110.864555 94.320976,112.449417 93.693314,113.897964 
	C91.918739,112.189087 90.450127,110.616539 89.135963,108.734741 
	C92.625221,105.235077 91.839378,101.315140 86.803200,100.702354 
	C80.425629,99.926353 78.574715,94.457466 77.996025,91.001213 
	C76.787437,83.782799 73.636093,83.195206 67.991119,84.969368 
	C67.384285,85.160103 66.666580,84.998077 65.991943,84.596939 
	C64.651878,83.130478 63.424522,81.381622 61.964668,81.159286 
	C59.615017,80.801430 56.869972,82.212234 54.720146,81.528854 
	C48.870495,79.669365 48.672428,82.872765 48.652206,87.051559 
	C46.222446,88.387001 44.212982,89.816154 42.050129,90.953651 
	C33.220337,95.597450 33.909904,105.353828 36.660755,112.037720 
	C37.002552,112.868217 38.308056,113.302086 39.270157,114.138947 
	C39.373299,114.358147 39.465050,114.833900 39.170906,114.991028 
	C39.777843,121.734528 48.197922,130.549576 54.191353,131.146545 
	C54.610310,131.505676 54.866623,131.687622 55.088356,132.124481 
	C55.041019,132.591309 55.045177,132.779419 55.093712,133.315674 
	C57.762238,134.795029 60.386387,135.926193 63.288654,137.033752 
	C63.748043,136.968079 63.929317,136.926056 64.321014,136.921234 
	C64.531433,136.958466 64.922066,137.131836 64.930573,137.436356 
	C64.967194,138.147064 64.995308,138.553268 65.007614,139.332016 
	C63.658802,140.813660 62.325790,141.922745 60.661575,143.022125 
	C59.888523,143.004562 59.446682,142.996735 58.939449,142.633865 
	C57.251133,141.354492 55.693253,140.276047 53.984539,139.555023 
	C52.638409,138.986984 51.106419,138.859406 49.656982,138.536194 
	C49.990688,139.934799 50.337685,141.330444 50.652084,142.733368 
	C50.793442,143.364166 50.869686,144.009537 50.651566,144.738312 
	C49.880054,144.843369 49.432446,144.858444 48.685562,144.613373 
	C42.668728,144.713486 36.774559,144.336746 31.285889,145.652069 
	C26.314814,146.843369 19.950258,145.906708 16.649670,152.039337 
	C12.378254,154.114716 7.162842,154.196945 5.854845,157.557709 
	C7.364784,162.053589 8.376226,165.065186 9.472867,168.330460 
	C5.710450,167.739670 3.355224,167.369843 1.000000,167.000000 
M101.907196,81.707321 
	C101.797203,76.861366 102.568710,71.918930 101.279030,66.303780 
	C99.908272,67.540245 99.281265,67.831245 99.251541,68.174034 
	C98.839729,72.923531 98.459549,77.677589 98.219116,82.437981 
	C98.186424,83.085114 98.953201,83.772636 99.349815,84.441452 
	C100.124153,83.793732 100.898491,83.146004 101.907196,81.707321 
M101.530296,194.189468 
	C101.506866,196.337173 101.286682,198.513657 101.593849,200.612991 
	C101.673889,201.160004 103.397903,201.466492 105.601151,202.414597 
	C104.079491,198.780899 103.157890,196.580139 101.530296,194.189468 
M201.691711,58.007317 
	C202.684799,58.071548 203.677872,58.135777 204.670959,58.200008 
	C204.397797,57.336521 204.124619,56.473038 203.851456,55.609550 
	C203.016678,56.210079 202.181915,56.810604 201.691711,58.007317 
M191.029617,95.989761 
	C191.888412,97.058876 192.747192,98.127991 193.605988,99.197113 
	C194.100143,98.613556 194.594284,98.029999 195.088440,97.446442 
	C193.750275,96.744209 192.412109,96.041969 191.029617,95.989761 
M264.097076,99.377014 
	C264.894287,99.690445 265.691498,100.003876 266.488678,100.317307 
	C266.486237,99.438057 266.483765,98.558807 266.481323,97.679558 
	C265.685852,97.997780 264.890350,98.316010 264.097076,99.377014 
M264.987671,109.250069 
	C265.083008,110.356842 265.178345,111.463615 265.273712,112.570396 
	C265.825439,112.447380 266.377136,112.324364 266.928864,112.201355 
	C266.500458,111.192101 266.072083,110.182854 264.987671,109.250069 
M203.442322,176.360199 
	C202.558151,175.973328 201.673981,175.586441 200.789810,175.199570 
	C200.685699,175.617935 200.581589,176.036316 200.477478,176.454697 
	C201.304794,176.565155 202.132095,176.675629 203.442322,176.360199 
M98.312874,94.476395 
	C97.975502,95.021866 97.638130,95.567329 97.300751,96.112793 
	C97.573830,96.247444 97.846909,96.382088 98.119995,96.516731 
	C98.324112,95.982574 98.528236,95.448410 98.312874,94.476395 
M97.272354,57.094833 
	C97.769112,57.040119 98.265877,56.985401 98.762627,56.930687 
	C98.648476,56.485317 98.534317,56.039948 98.420166,55.594574 
	C97.996078,55.896008 97.571991,56.197441 97.272354,57.094833 
z"/>
<path fill="#FCFEFD" opacity="1.000000" stroke="none" 
	d="
M17.999924,177.000000 
	C12.620244,177.000000 7.240564,177.000000 1.430442,177.000000 
	C1.000000,173.969406 1.000000,170.938812 1.000000,167.454102 
	C3.355224,167.369843 5.710450,167.739670 9.472867,168.330460 
	C8.376226,165.065186 7.364784,162.053589 5.854845,157.557709 
	C7.162842,154.196945 12.378254,154.114716 16.657246,152.432129 
	C17.093952,153.309677 17.157026,153.831100 17.193050,154.523697 
	C17.166004,154.694885 17.003664,155.001114 16.639984,155.038116 
	C14.877625,156.333328 12.098635,157.940826 12.313695,158.790634 
	C13.375273,162.985428 15.229537,166.979614 16.897884,171.311676 
	C17.058500,171.949493 17.125402,172.320190 17.149494,173.063431 
	C17.419950,174.607834 17.733219,175.779694 18.034855,176.963684 
	C18.023222,176.975800 17.999924,177.000000 17.999924,177.000000 
z"/>
<path fill="#59C3F0" opacity="1.000000" stroke="none" 
	d="
M17.192305,172.690903 
	C17.125402,172.320190 17.058500,171.949493 16.953949,170.876862 
	C16.945421,165.117004 16.974543,160.059052 17.003662,155.001114 
	C17.003664,155.001114 17.166004,154.694885 17.517857,154.405640 
	C22.201633,149.529526 27.789572,147.754288 33.826542,146.953598 
	C38.882336,146.283051 43.932297,145.568542 48.984840,144.873505 
	C49.432446,144.858444 49.880054,144.843369 50.914101,144.812088 
	C51.681034,144.776108 51.861530,144.756363 52.483418,144.822235 
	C55.648685,144.765564 58.372559,144.623260 61.519230,144.611450 
	C64.881805,144.915344 67.821579,145.088760 71.003326,145.539917 
	C73.445335,146.448685 75.616013,147.271927 77.860085,147.614731 
	C78.738350,147.748886 80.332664,147.008072 80.595482,146.295120 
	C80.862633,145.570404 80.142334,143.841568 79.416008,143.508469 
	C77.057671,142.426926 74.498482,141.783340 71.821930,140.914825 
	C71.627235,140.858521 71.226189,140.799591 71.101128,140.485199 
	C68.958061,139.157806 66.940063,138.144821 64.922066,137.131836 
	C64.922066,137.131836 64.531433,136.958466 64.217072,136.688599 
	C63.605392,136.270767 63.308067,136.122787 62.700279,135.897247 
	C61.300690,135.204941 60.211559,134.590195 59.004227,133.750015 
	C58.590584,133.379044 58.295147,133.233505 57.796898,133.022964 
	C57.594086,132.957977 57.174320,132.885727 56.988701,132.648483 
	C56.248672,132.222733 55.694263,132.034241 55.139851,131.845749 
	C54.866623,131.687622 54.610310,131.505676 54.140373,130.885681 
	C53.834072,130.311234 53.758305,130.151016 53.664467,129.808868 
	C53.504810,129.378387 53.295753,129.291290 52.740097,129.154175 
	C48.128994,124.239769 43.797020,119.536835 39.465050,114.833900 
	C39.465050,114.833900 39.373299,114.358147 39.225811,113.737251 
	C38.831684,108.481857 37.203552,103.360176 38.629856,99.315643 
	C41.481453,91.229454 51.070049,87.361374 59.055634,90.298813 
	C62.644405,91.618935 65.833824,94.169914 69.007545,96.437912 
	C73.378487,99.561493 77.562881,102.946129 81.795898,106.180954 
	C81.764603,106.142990 81.793594,106.237228 81.870850,106.559464 
	C85.933243,109.953918 89.918381,113.026138 94.068253,116.387039 
	C97.955338,120.451920 101.782211,124.131920 105.371117,128.030960 
	C109.070709,132.050232 108.511993,134.518204 105.154648,138.785095 
	C102.267624,142.454254 100.349144,146.885513 97.749031,151.159821 
	C97.281235,152.133133 97.066803,152.926453 96.531525,153.877930 
	C93.469933,158.954239 91.058022,163.898254 92.482529,169.856674 
	C93.573952,174.421875 91.957031,176.006577 87.133789,176.087234 
	C84.421883,176.132599 81.719322,176.737030 78.683548,177.066055 
	C77.921219,177.110062 77.487900,177.177597 76.622803,177.160309 
	C68.469231,178.007492 60.731998,178.830887 53.033340,179.925552 
	C49.994625,180.357635 47.041862,181.394226 43.713001,182.116455 
	C42.932583,182.151382 42.489124,182.225418 41.670364,182.186432 
	C38.537064,181.745728 35.779072,181.418045 32.682377,181.044464 
	C31.888874,181.015366 31.434072,181.032166 30.746212,180.795914 
	C27.668890,179.389893 24.824627,178.236923 21.820915,176.988724 
	C21.661467,176.893509 21.298365,176.815262 21.204548,176.492477 
	C19.804588,175.010101 18.498446,173.850494 17.192305,172.690903 
z"/>
<path fill="#92C326" opacity="1.000000" stroke="none" 
	d="
M273.036652,169.236847 
	C272.003937,169.274841 270.971222,169.312820 269.189148,169.334747 
	C259.153503,171.441696 250.018127,174.842896 240.205063,172.374390 
	C239.275345,172.140533 238.094543,172.904922 237.030304,173.205856 
	C236.266037,173.236832 235.501755,173.267792 233.995377,173.296860 
	C232.155838,173.421875 231.058411,173.548782 229.960983,173.675690 
	C229.531891,173.515488 229.102798,173.355270 228.081650,172.912445 
	C224.684540,172.523407 221.879471,172.416946 218.631927,172.270187 
	C216.115509,172.216324 214.041580,172.202774 211.746094,171.920288 
	C203.544830,170.041290 203.527359,163.429550 202.680969,157.012421 
	C201.461014,154.450516 200.135330,152.281097 198.587433,149.863342 
	C198.121658,148.763519 197.878098,147.912018 197.929626,146.932465 
	C197.673523,146.012543 197.122330,145.220688 196.577606,144.387268 
	C196.584061,144.345718 196.508255,144.309280 196.666977,143.950500 
	C195.933670,142.374329 195.041656,141.156937 193.889130,139.895203 
	C193.452560,139.856949 193.276505,139.863022 193.100449,139.869095 
	C193.100449,139.869095 193.029587,139.947998 193.103668,139.652008 
	C193.141479,139.169128 193.105240,138.982239 193.017120,138.456726 
	C191.683945,137.394287 190.402649,136.670486 189.121368,135.946686 
	C188.162277,135.157379 187.203186,134.368073 186.102783,132.945129 
	C185.245834,130.519638 184.530228,128.727783 184.235611,126.958511 
	C192.197128,124.249443 200.422852,122.826393 205.408432,115.400536 
	C206.954376,113.097946 208.732651,110.691345 210.976944,109.185341 
	C213.613174,107.416336 214.036255,105.600548 213.137375,102.677292 
	C214.513245,101.575676 215.741837,100.766243 216.947250,100.320091 
	C215.495605,103.300735 217.108856,104.328491 219.260544,104.519386 
	C221.035782,104.676880 222.868225,104.189651 224.675308,103.988121 
	C223.958527,102.572891 223.294083,101.127480 222.502716,99.755257 
	C222.110580,99.075264 221.484863,98.529961 221.006409,97.580177 
	C222.710220,95.645210 224.372421,94.053795 226.346191,92.327576 
	C227.103928,92.136528 227.550095,92.080292 228.227982,92.288658 
	C230.245392,91.588234 232.031097,90.623207 233.856628,89.506897 
	C233.896484,89.355614 234.048553,89.082176 234.429230,89.116066 
	C236.237686,88.662262 237.665466,88.174576 239.401672,87.695892 
	C240.089554,87.560936 240.469009,87.416954 241.282654,87.425400 
	C248.222839,86.457504 252.509033,90.366608 256.907562,94.550537 
	C257.221436,95.236046 257.438782,95.610931 257.568542,96.162094 
	C257.480957,96.338387 257.718231,96.651680 257.718231,96.651680 
	C257.718231,96.651680 258.109467,96.608765 258.144836,96.705635 
	C258.180176,96.802505 258.367584,96.888588 258.327576,97.276886 
	C260.380188,103.453644 259.541687,108.580391 254.861801,112.839943 
	C254.861801,112.839943 254.956299,113.008209 254.554352,112.941895 
	C242.737213,121.734474 230.605240,129.308090 216.761169,133.843704 
	C213.083817,135.048477 211.034622,137.686386 212.198792,141.456909 
	C213.364395,145.232040 216.821259,145.310654 220.086273,144.658218 
	C226.247314,143.427094 232.321289,141.553253 238.534164,140.835449 
	C248.715073,139.659149 258.978027,139.193130 269.206390,138.427551 
	C269.907776,138.548309 270.609161,138.669083 271.864624,139.062012 
	C274.638184,140.159592 276.857666,140.985016 279.227417,141.943054 
	C279.377686,142.075638 279.750916,142.221573 279.843933,142.555893 
	C283.876282,146.664307 285.334747,150.744171 284.502960,156.612717 
	C283.453552,164.016785 278.841797,166.848572 273.036652,169.236847 
z"/>
<path fill="#D44F37" opacity="1.000000" stroke="none" 
	d="
M113.284355,104.886032 
	C113.269241,104.459244 113.254128,104.032463 113.213791,102.920624 
	C112.204933,99.836205 111.450882,97.308525 110.194931,95.061371 
	C106.309830,88.110085 107.223572,80.355400 106.204170,72.925407 
	C106.248909,71.895409 106.293640,70.865410 106.502472,69.118195 
	C106.587036,61.691227 108.255241,55.542011 112.498085,50.218536 
	C112.498085,50.218536 112.809456,50.261410 113.314171,50.165043 
	C119.120293,48.404053 124.443703,47.013157 130.019867,48.766220 
	C130.371994,48.915817 130.724106,49.065411 131.568863,49.486473 
	C133.477020,53.516457 134.892548,57.274975 136.004974,60.952400 
	C134.825012,59.502174 133.837418,58.190434 133.092270,56.753006 
	C130.956757,52.633530 128.835449,49.068604 123.006569,49.852959 
	C116.308533,50.754269 111.870552,55.183559 109.785164,62.156582 
	C106.911568,71.765175 107.775757,80.859955 110.752487,90.205750 
	C113.171379,97.800156 117.715088,104.738640 117.606804,113.168701 
	C117.558525,116.927231 118.301445,120.748779 119.163177,124.429863 
	C119.385361,125.378983 121.575539,126.684349 122.583961,126.476784 
	C125.423248,125.892380 128.168243,124.723618 130.860840,123.575233 
	C141.141998,119.190300 151.765457,119.309540 162.532532,120.971054 
	C168.465164,121.886551 171.118195,120.108803 172.836670,114.298759 
	C173.291245,112.761902 174.005142,111.289467 174.709778,109.840866 
	C178.997314,101.026482 183.974350,92.474907 187.409042,83.342102 
	C189.977219,76.513390 190.924957,68.990273 191.924728,61.684738 
	C192.666840,56.262028 192.921661,50.936481 186.340042,47.600006 
	C180.428635,44.603279 172.702942,45.885414 169.842407,52.092026 
	C165.870499,60.710060 161.733459,69.302734 158.573303,78.227150 
	C156.284546,84.690681 154.668900,91.626945 154.256165,98.443413 
	C153.947067,103.548241 151.577560,106.582001 148.092819,109.056198 
	C145.440262,110.939552 141.996429,110.764000 140.434631,107.402496 
	C139.245255,104.842567 138.872681,101.782303 138.688080,98.909210 
	C138.489685,95.821274 139.349564,92.647316 139.020081,89.589287 
	C138.101898,81.067467 136.792419,72.588066 135.718536,64.081680 
	C135.679428,63.771904 136.492157,63.354588 137.054321,63.285698 
	C137.688599,64.765656 138.176437,65.947311 138.652740,67.525055 
	C139.017212,70.254616 139.393219,72.588089 139.549286,75.125717 
	C139.398193,76.269508 139.467041,77.209137 139.591187,78.511772 
	C139.849564,79.579094 140.052612,80.283401 140.200165,81.429443 
	C140.357742,87.628036 140.847595,93.392662 140.686401,99.139023 
	C140.579224,102.959793 141.377426,106.085533 145.286728,106.771523 
	C149.350739,107.484650 151.111542,104.481194 151.846756,100.915314 
	C152.912186,95.747849 153.718536,90.517906 154.998718,85.405594 
	C158.056137,73.195854 160.920456,60.876492 168.102234,50.205692 
	C172.081787,44.292789 181.137894,39.679176 188.045853,46.638016 
	C189.265152,47.866295 191.166199,48.417824 192.752411,49.281872 
	C192.752411,49.281872 192.914032,49.041107 192.869888,49.507633 
	C195.623718,54.797134 194.115112,59.832359 193.557465,64.820717 
	C193.268875,65.952522 192.980286,67.084328 192.492462,68.860519 
	C192.227478,71.007217 192.161743,72.509529 192.096008,74.011841 
	C191.985794,74.731804 191.875565,75.451759 191.500580,76.823685 
	C190.382294,80.800117 190.016937,84.355087 188.577820,87.403061 
	C185.147446,94.668388 181.170349,101.674049 177.514587,108.835884 
	C176.867661,110.103241 176.706512,111.618576 176.321045,113.019402 
	C176.162384,113.434250 176.003723,113.849106 175.541931,114.787720 
	C174.075943,117.122574 173.274429,119.415802 171.660675,120.625290 
	C169.542877,122.212578 166.773087,123.894104 164.304367,123.863617 
	C157.594894,123.780754 150.882233,122.245995 144.198471,122.410355 
	C139.963654,122.514496 135.821426,124.818855 131.558823,125.790604 
	C127.158890,126.793663 123.689400,132.179550 118.147690,128.316513 
	C117.637115,126.040665 117.352585,124.111259 116.956413,122.205048 
	C115.755600,116.427223 114.511566,110.658379 113.284355,104.886032 
z"/>
<path fill="#FCF7EB" opacity="1.000000" stroke="none" 
	d="
M118.322693,128.673553 
	C123.689400,132.179550 127.158890,126.793663 131.558823,125.790604 
	C135.821426,124.818855 139.963654,122.514496 144.198471,122.410355 
	C150.882233,122.245995 157.594894,123.780754 164.304367,123.863617 
	C166.773087,123.894104 169.542877,122.212578 171.660675,120.625290 
	C173.274429,119.415802 174.075943,117.122574 175.511993,115.119949 
	C179.008759,118.617317 182.844818,117.934807 186.668945,117.337341 
	C186.767639,116.841019 186.866333,116.344688 186.965027,115.848366 
	C185.211044,115.378387 183.457047,114.908409 181.703049,114.438431 
	C181.647659,114.215836 181.592255,113.993233 181.536865,113.770630 
	C186.166107,113.097000 190.795349,112.423363 195.325027,111.764214 
	C194.408493,109.535416 193.663849,107.724625 192.397507,104.645187 
	C196.415771,106.171730 197.872421,111.819695 201.276505,107.403099 
	C202.222488,106.175743 201.420593,103.601196 201.420593,101.449860 
	C203.147598,101.848412 205.595673,102.413368 208.366852,103.304001 
	C203.478210,107.840500 198.266464,112.051308 192.710663,116.282990 
	C190.262985,117.568306 188.245468,119.013763 186.039627,120.063499 
	C179.246689,123.296204 178.537842,126.091080 183.231445,131.933868 
	C181.449860,131.953720 179.668274,131.973587 177.443344,131.996735 
	C177.000000,132.000000 177.003174,132.003036 176.962769,131.634521 
	C175.425476,128.819153 175.049088,125.038292 170.659988,126.049889 
	C166.801163,126.939262 168.393021,130.135315 167.517242,132.468002 
	C150.304626,127.727547 134.066376,126.118286 120.738785,140.802719 
	C120.453003,141.117584 119.844009,141.139114 119.249084,140.944946 
	C117.870155,139.614746 116.754715,138.151688 115.352768,137.785461 
	C113.698097,137.353226 111.795639,137.869568 109.998520,137.649429 
	C110.001945,136.890900 110.007462,136.457611 110.012985,136.024323 
	C111.975533,134.576889 113.938072,133.129440 115.950310,131.341003 
	C116.000000,131.000000 115.998589,131.001236 116.311417,130.965149 
	C117.048965,130.320160 117.473679,129.711258 118.004257,128.994949 
	C118.110123,128.887543 118.322693,128.673553 118.322693,128.673553 
z"/>
<path fill="#FEFDFE" opacity="1.000000" stroke="none" 
	d="
M140.255676,80.987717 
	C140.052612,80.283401 139.849564,79.579094 139.920044,78.352737 
	C140.052124,76.860985 139.910675,75.891273 139.769211,74.921562 
	C139.393219,72.588089 139.017212,70.254616 139.007492,67.373543 
	C141.245468,66.215874 143.117157,65.605804 144.988846,64.995728 
	C148.132324,64.680222 151.278183,64.386200 154.417923,64.037170 
	C155.472046,63.919987 156.510605,63.662731 157.629730,64.083786 
	C156.777191,67.643356 155.753021,70.562019 154.945633,73.539474 
	C153.254227,79.776932 151.613922,86.030144 150.098434,92.312057 
	C149.732635,93.828316 150.146759,95.526993 149.818481,97.059593 
	C149.461624,98.725594 148.714905,101.640366 148.038239,101.669250 
	C145.450317,101.779716 142.646164,101.274834 142.968613,97.362930 
	C143.240021,94.070366 143.621964,90.699059 143.186310,87.466194 
	C142.883072,85.215919 141.278763,83.140984 140.255676,80.987717 
M144.537598,69.525795 
	C144.233887,71.470253 143.930176,73.414711 143.626465,75.359169 
	C144.082886,74.906548 144.539307,74.453926 145.671005,73.931915 
	C146.338867,73.174400 147.006714,72.416885 147.674561,71.659370 
	C146.780807,71.105705 145.887039,70.552032 144.537598,69.525795 
z"/>
<path fill="#FCF7EB" opacity="1.000000" stroke="none" 
	d="
M140.200165,81.429443 
	C141.278763,83.140984 142.883072,85.215919 143.186310,87.466194 
	C143.621964,90.699059 143.240021,94.070366 142.968613,97.362930 
	C142.646164,101.274834 145.450317,101.779716 148.038239,101.669250 
	C148.714905,101.640366 149.461624,98.725594 149.818481,97.059593 
	C150.146759,95.526993 149.732635,93.828316 150.098434,92.312057 
	C151.613922,86.030144 153.254227,79.776932 154.945633,73.539474 
	C155.753021,70.562019 156.777191,67.643356 157.854004,64.357132 
	C160.503983,58.900455 165.388535,54.430035 161.942001,48.311600 
	C167.972610,45.186794 173.455597,42.345749 179.255630,39.340420 
	C183.108475,43.000450 191.065231,41.069729 192.792770,48.908974 
	C191.166199,48.417824 189.265152,47.866295 188.045853,46.638016 
	C181.137894,39.679176 172.081787,44.292789 168.102234,50.205692 
	C160.920456,60.876492 158.056137,73.195854 154.998718,85.405594 
	C153.718536,90.517906 152.912186,95.747849 151.846756,100.915314 
	C151.111542,104.481194 149.350739,107.484650 145.286728,106.771523 
	C141.377426,106.085533 140.579224,102.959793 140.686401,99.139023 
	C140.847595,93.392662 140.357742,87.628036 140.200165,81.429443 
z"/>
<path fill="#E9A531" opacity="1.000000" stroke="none" 
	d="
M119.385788,141.297485 
	C119.844009,141.139114 120.453003,141.117584 120.738785,140.802719 
	C134.066376,126.118286 150.304626,127.727547 167.821167,132.623352 
	C169.660263,132.906219 170.788986,133.041275 172.129486,133.422699 
	C173.838669,134.569809 175.336090,135.470520 176.833527,136.371246 
	C176.833527,136.371246 176.936920,136.729843 177.168243,137.166458 
	C183.567581,143.581345 187.786957,150.695572 189.895920,159.040009 
	C190.399155,160.549240 190.902390,162.058456 191.664185,164.235809 
	C191.871002,168.291428 191.819244,171.678925 191.767487,175.066437 
	C191.752747,175.779266 191.738007,176.492111 191.489944,177.774933 
	C188.248749,183.297592 185.240875,188.250244 182.121323,193.101685 
	C182.009644,193.000458 181.788254,192.795868 181.863373,192.431580 
	C182.732285,190.104080 183.345230,188.042160 184.353149,186.195847 
	C187.606934,180.235458 191.498917,174.431931 189.979584,167.164627 
	C189.456467,164.662460 187.998016,162.364944 187.055527,159.939499 
	C185.109573,154.931686 183.550171,149.735260 181.137802,144.967560 
	C180.275085,143.262543 177.409286,142.571045 174.822372,141.041168 
	C174.793762,141.114243 175.280029,139.872482 176.253021,137.387772 
	C168.687347,135.529968 161.664383,132.825058 154.475189,132.268829 
	C143.572662,131.425308 132.168121,130.282532 124.134880,140.995804 
	C122.508797,143.164383 118.775963,143.753235 116.186371,144.796127 
	C117.334129,143.447510 118.309914,142.373138 119.310677,141.294571 
	C119.335648,141.290375 119.385788,141.297470 119.385788,141.297485 
z"/>
<path fill="#E9A531" opacity="1.000000" stroke="none" 
	d="
M161.854080,223.976913 
	C161.854080,223.976913 161.710175,224.250275 161.536041,224.572754 
	C161.285767,225.258469 161.209641,225.621719 161.133514,225.984955 
	C161.017731,227.690979 160.901947,229.397003 160.619476,231.730225 
	C160.597839,233.251785 160.742920,234.146149 160.888000,235.040527 
	C160.877441,236.412918 160.866867,237.785324 160.636200,239.872147 
	C160.000443,244.395767 159.584808,248.204971 159.169174,252.014160 
	C159.029327,252.428558 158.889481,252.842972 158.538300,253.857681 
	C156.786041,260.754608 152.504974,265.386749 147.930725,265.706848 
	C144.640335,265.937103 138.680618,260.624939 136.689911,255.901306 
	C136.080292,254.454788 134.998138,253.207397 134.132385,251.868820 
	C134.132385,251.868820 134.164505,251.957138 134.123383,251.553284 
	C133.158554,248.410706 132.234863,245.671982 131.631683,243.023941 
	C133.625809,245.432358 135.299438,247.750122 137.006104,250.423279 
	C139.676895,254.219070 142.314667,257.659454 145.125717,261.403320 
	C147.332428,261.508057 150.351028,262.074066 151.211823,260.965118 
	C153.652206,257.821289 156.271591,254.171265 156.906998,250.398331 
	C158.506119,240.903030 159.673920,231.239136 159.806686,221.626129 
	C159.897293,215.063980 161.168747,210.044159 166.950089,206.484528 
	C168.736221,205.384781 169.944016,203.382278 171.536911,201.924545 
	C174.912064,198.835815 178.366379,195.833572 181.788254,192.795868 
	C181.788254,192.795868 182.009644,193.000458 182.008423,193.417664 
	C179.556793,196.768448 177.106384,199.702026 174.655975,202.635605 
	C174.655975,202.635605 174.943771,202.660126 174.487808,202.725815 
	C173.294205,203.812042 172.556564,204.832581 171.818909,205.853104 
	C171.818909,205.853104 171.961090,205.956512 171.573090,205.948380 
	C164.628006,210.169327 160.519653,215.665253 161.854080,223.976913 
z"/>
<path fill="#E9A531" opacity="1.000000" stroke="none" 
	d="
M113.097450,201.808746 
	C113.097450,201.808746 113.068153,201.381897 112.992950,200.828995 
	C109.444016,194.623169 105.970268,188.970245 102.496529,183.317322 
	C102.560852,182.987274 102.512543,182.674622 102.189682,181.808899 
	C101.394455,180.157898 100.761147,179.077393 100.127838,177.996887 
	C100.180473,177.786804 100.233101,177.576736 100.374481,176.945831 
	C100.472664,176.219437 100.324280,176.064499 100.018074,176.060196 
	C100.030869,175.871902 100.043671,175.683609 100.040497,174.819672 
	C101.435959,163.380234 104.471756,153.286987 112.371353,145.079407 
	C113.156059,145.172302 113.600372,145.246979 113.988342,145.654785 
	C111.084023,150.721237 107.431526,155.162384 105.580963,160.257935 
	C102.955788,167.486420 100.095100,175.157242 105.728622,182.632095 
	C107.985825,185.627075 109.778214,188.976837 111.727249,192.198334 
	C113.739868,195.524948 115.050461,199.591660 117.800018,202.087936 
	C122.729874,206.563690 128.507568,210.105591 133.947784,214.403015 
	C133.960587,217.516983 133.956528,220.265701 133.947083,223.422943 
	C133.597916,229.533783 133.254120,235.236130 132.609558,240.959244 
	C131.906693,240.985565 131.504578,240.991119 130.832306,240.718781 
	C130.690994,234.961670 130.819809,229.482437 131.045776,223.690308 
	C131.159546,222.943146 131.176163,222.508881 131.427063,221.782074 
	C132.793594,217.438416 131.417938,214.248947 127.990395,212.098892 
	C123.842537,209.496964 119.522614,207.169327 115.277153,204.722977 
	C115.277153,204.722977 115.049553,204.727798 115.100578,204.433960 
	C114.466881,203.362991 113.782166,202.585861 113.097450,201.808746 
z"/>
<path fill="#DDF0B1" opacity="1.000000" stroke="none" 
	d="
M269.174652,138.244431 
	C258.978027,139.193130 248.715073,139.659149 238.534164,140.835449 
	C232.321289,141.553253 226.247314,143.427094 220.086273,144.658218 
	C216.821259,145.310654 213.364395,145.232040 212.198792,141.456909 
	C211.034622,137.686386 213.083817,135.048477 216.761169,133.843704 
	C230.605240,129.308090 242.737213,121.734474 254.499573,112.861404 
	C251.762787,119.629112 245.483398,122.742561 239.367203,125.758919 
	C232.220078,129.283707 224.640305,131.940369 217.549393,135.563110 
	C215.905563,136.402954 215.482117,139.631454 214.497131,141.760818 
	C216.463974,141.968475 218.505035,142.619919 220.384598,142.305618 
	C227.836502,141.059555 235.185211,139.039688 242.672318,138.203415 
	C250.708313,137.305817 258.856812,137.415436 267.550049,137.262970 
	C268.378082,137.669998 268.657928,137.765060 268.983429,137.725601 
	C268.983429,137.725601 269.142914,138.061325 269.174652,138.244431 
z"/>
<path fill="#FDFEFC" opacity="1.000000" stroke="none" 
	d="
M66.000305,84.999695 
	C66.666580,84.998077 67.384285,85.160103 67.991119,84.969368 
	C73.636093,83.195206 76.787437,83.782799 77.996025,91.001213 
	C78.574715,94.457466 80.425629,99.926353 86.803200,100.702354 
	C91.839378,101.315140 92.625221,105.235077 88.822342,108.570732 
	C86.167389,107.889725 83.980492,107.063477 81.793594,106.237228 
	C81.793594,106.237228 81.764603,106.142990 81.736076,105.830917 
	C80.327553,103.943222 79.088608,102.210381 77.540848,100.821739 
	C73.083870,96.822990 68.502197,92.963211 64.113922,88.748856 
	C64.838989,87.299141 65.419647,86.149414 66.000305,84.999695 
z"/>
<path fill="#FCF7EB" opacity="1.000000" stroke="none" 
	d="
M112.030960,145.061172 
	C104.471756,153.286987 101.435959,163.380234 99.942093,174.554230 
	C98.483017,172.976074 97.106369,170.987732 95.316711,168.618835 
	C94.827858,166.994247 94.519348,165.711288 94.719704,164.513428 
	C95.324471,160.897797 96.126961,157.315216 96.852371,153.719757 
	C97.066803,152.926453 97.281235,152.133133 98.098831,151.124725 
	C99.481148,149.737656 100.101997,148.409821 101.071518,147.425339 
	C103.277611,145.185242 105.654892,143.113724 108.109337,141.269363 
	C109.514366,142.730423 110.772659,143.895798 112.030960,145.061172 
z"/>
<path fill="#FCFEFE" opacity="1.000000" stroke="none" 
	d="
M131.192780,222.074631 
	C131.176163,222.508881 131.159546,222.943146 130.792206,223.794678 
	C129.962341,224.476807 129.483185,224.741653 129.004013,225.006500 
	C127.809242,224.002426 126.614471,222.998367 125.419701,221.994308 
	C125.401985,222.596924 125.384277,223.199554 125.366570,223.802170 
	C122.803818,224.431641 120.241066,225.061096 117.678314,225.690552 
	C117.324440,223.828949 116.970566,221.967331 116.616699,220.105728 
	C116.946373,220.026993 117.276054,219.948242 117.605736,219.869507 
	C116.436951,218.805649 115.268173,217.741791 114.383209,216.286926 
	C114.444763,214.931381 114.222496,213.966827 114.000221,213.002274 
	C114.000046,211.933624 113.999870,210.864975 114.337708,209.248566 
	C114.823868,208.625214 114.965309,208.503510 115.121155,208.480835 
	C117.934067,208.071732 128.997681,214.464859 129.825211,217.034058 
	C130.358368,218.689346 130.742096,220.392776 131.192780,222.074631 
M120.883072,219.721664 
	C121.424973,219.530334 121.966881,219.339005 122.508789,219.147690 
	C122.381714,218.870071 122.254646,218.592468 122.127563,218.314835 
	C121.569778,218.639359 121.011993,218.963882 120.883072,219.721664 
z"/>
<path fill="#FCFEFD" opacity="1.000000" stroke="none" 
	d="
M77.054581,177.245148 
	C77.487900,177.177597 77.921219,177.110062 78.854202,177.298523 
	C79.902275,177.701599 80.450676,177.848663 80.999084,177.995728 
	C80.600311,181.204834 78.929146,182.764450 75.587685,183.354416 
	C69.847282,184.367950 64.266495,186.462570 58.506195,187.124908 
	C54.575348,187.576904 49.819870,188.399872 47.430653,183.322433 
	C54.193935,182.208649 60.659393,181.785309 67.014771,180.710846 
	C70.458252,180.128647 73.714096,178.436569 77.054581,177.245148 
z"/>
<path fill="#D7F7FE" opacity="1.000000" stroke="none" 
	d="
M63.969505,89.048843 
	C68.502197,92.963211 73.083870,96.822990 77.540848,100.821739 
	C79.088608,102.210381 80.327553,103.943222 81.767365,105.868889 
	C77.562881,102.946129 73.378487,99.561493 69.007545,96.437912 
	C65.833824,94.169914 62.644405,91.618935 59.055634,90.298813 
	C51.070049,87.361374 41.481453,91.229454 38.629856,99.315643 
	C37.203552,103.360176 38.831684,108.481857 39.122665,113.518051 
	C38.308056,113.302086 37.002552,112.868217 36.660755,112.037720 
	C33.909904,105.353828 33.220337,95.597450 42.050129,90.953651 
	C44.212982,89.816154 46.222446,88.387001 49.090439,87.048729 
	C54.575470,87.686630 59.272488,88.367737 63.969505,89.048843 
z"/>
<path fill="#FCFEFD" opacity="1.000000" stroke="none" 
	d="
M30.979273,181.048965 
	C31.434072,181.032166 31.888874,181.015366 32.801460,181.326965 
	C33.513721,182.417694 33.768192,183.180023 34.022663,183.942352 
	C34.245152,186.033035 34.467640,188.123703 34.721581,190.509933 
	C31.302473,190.916916 27.735054,192.666138 26.692509,187.151016 
	C26.523752,186.258301 24.570875,185.247833 23.338665,185.086563 
	C16.457249,184.185852 16.446314,184.269394 17.992477,177.398376 
	C17.999924,177.000000 18.023222,176.975800 18.439510,176.970428 
	C19.669987,176.915131 20.484175,176.865189 21.298365,176.815262 
	C21.298365,176.815262 21.661467,176.893509 21.862488,177.342468 
	C24.042477,181.594955 27.290173,181.926010 30.979273,181.048965 
z"/>
<path fill="#FDFDFC" opacity="1.000000" stroke="none" 
	d="
M64.113922,88.748848 
	C59.272488,88.367737 54.575470,87.686630 49.440216,87.008354 
	C48.672428,82.872765 48.870495,79.669365 54.720146,81.528854 
	C56.869972,82.212234 59.615017,80.801430 61.964668,81.159286 
	C63.424522,81.381622 64.651878,83.130478 65.991943,84.596939 
	C65.419647,86.149414 64.838989,87.299141 64.113922,88.748848 
z"/>
<path fill="#FEFDFE" opacity="1.000000" stroke="none" 
	d="
M134.990234,49.004883 
	C137.869949,49.040352 140.786331,48.833138 143.607071,49.259148 
	C144.453491,49.386978 145.596695,51.265198 145.625961,52.367489 
	C145.703125,55.274067 145.243683,58.194889 144.640778,61.593575 
	C142.290359,61.493267 139.160385,61.482094 138.522263,60.215508 
	C136.782379,56.762047 136.094757,52.778446 134.990234,49.004883 
z"/>
<path fill="#FCF7EB" opacity="1.000000" stroke="none" 
	d="
M175.031219,202.775696 
	C177.106384,199.702026 179.556793,196.768448 182.120087,193.518890 
	C185.240875,188.250244 188.248749,183.297592 191.511337,178.131104 
	C192.078140,178.747208 192.894745,179.839371 192.621490,180.365051 
	C190.654358,184.149445 188.466263,187.819000 186.645157,191.005478 
	C187.931305,193.957428 189.071732,196.574890 190.212158,199.192352 
	C189.756027,199.371689 189.299881,199.551010 188.843750,199.730331 
	C183.492004,195.183228 182.895859,195.276581 179.108368,201.627670 
	C180.641968,202.374115 182.134506,203.100586 184.224533,204.117859 
	C180.258743,207.725723 178.089767,203.439316 175.031219,202.775696 
z"/>
<path fill="#FCF7EB" opacity="1.000000" stroke="none" 
	d="
M134.086411,252.260605 
	C134.998138,253.207397 136.080292,254.454788 136.689911,255.901306 
	C138.680618,260.624939 144.640335,265.937103 147.930725,265.706848 
	C152.504974,265.386749 156.786041,260.754608 158.547699,254.187561 
	C162.137268,258.397308 158.630310,261.335541 156.176529,264.210876 
	C152.815552,268.149261 148.405899,268.868896 143.528732,267.241669 
	C136.469223,264.886383 133.586609,259.867401 134.086411,252.260605 
z"/>
<path fill="#D7F7FE" opacity="1.000000" stroke="none" 
	d="
M107.962601,140.973694 
	C105.654892,143.113724 103.277611,145.185242 101.071518,147.425339 
	C100.101997,148.409821 99.481148,149.737656 98.352196,150.944702 
	C100.349144,146.885513 102.267624,142.454254 105.154648,138.785095 
	C108.511993,134.518204 109.070709,132.050232 105.371117,128.030960 
	C101.782211,124.131920 97.955338,120.451920 94.136490,116.317787 
	C94.040001,115.959854 94.175674,115.822571 94.503235,115.876129 
	C95.875015,116.285606 96.919243,116.641510 97.963470,116.997406 
	C99.776711,118.584084 101.589951,120.170761 103.803680,122.113388 
	C104.393211,122.726753 104.639618,122.904831 104.943375,123.003586 
	C106.628777,127.064102 108.314178,131.124619 110.006287,135.604736 
	C110.007462,136.457611 110.001945,136.890900 109.743866,137.819916 
	C108.981728,139.201660 108.472160,140.087677 107.962601,140.973694 
z"/>
<path fill="#FCF7EB" opacity="1.000000" stroke="none" 
	d="
M176.645386,112.965225 
	C176.706512,111.618576 176.867661,110.103241 177.514587,108.835884 
	C181.170349,101.674049 185.147446,94.668388 188.577820,87.403061 
	C190.016937,84.355087 190.382294,80.800117 191.490662,77.188705 
	C191.696564,79.934647 192.661499,83.493660 191.411163,85.903084 
	C187.443115,93.549561 183.426071,101.020180 184.055145,108.346031 
	C181.051712,110.281097 179.010712,111.596077 176.645386,112.965225 
z"/>
<path fill="#FCF7EB" opacity="1.000000" stroke="none" 
	d="
M105.869614,73.196312 
	C107.223572,80.355400 106.309830,88.110085 110.194931,95.061371 
	C111.450882,97.308525 112.204933,99.836205 113.096786,102.620735 
	C107.952820,103.692329 108.256409,99.688049 107.630402,96.485268 
	C106.188988,96.582314 104.941368,96.666321 103.033638,96.794769 
	C103.730217,92.721550 104.557434,89.015388 104.952316,85.263725 
	C105.363800,81.354416 105.358269,77.401222 105.869614,73.196312 
z"/>
<path fill="#9CC444" opacity="1.000000" stroke="none" 
	d="
M193.054703,116.262123 
	C198.266464,112.051308 203.478210,107.840500 208.762512,103.303749 
	C209.107635,102.765930 209.280273,102.491211 209.674805,101.791138 
	C215.019958,98.325897 220.043259,95.223190 225.315002,92.187271 
	C225.720505,92.323509 225.877579,92.392952 226.034637,92.462387 
	C224.372421,94.053795 222.710220,95.645210 220.634308,97.596245 
	C219.137222,98.622849 218.053833,99.289833 216.970428,99.956818 
	C215.741837,100.766243 214.513245,101.575676 212.791290,102.719521 
	C211.138733,104.147583 209.964706,105.225975 208.823013,106.337570 
	C204.209518,110.829391 200.580902,116.749435 193.116821,116.904724 
	C193.098526,116.690292 193.054703,116.262123 193.054703,116.262123 
z"/>
<path fill="#FCF7EB" opacity="1.000000" stroke="none" 
	d="
M190.204422,158.786240 
	C187.786957,150.695572 183.567581,143.581345 177.310959,137.286682 
	C180.889816,138.562454 184.582565,140.100632 188.201660,141.796036 
	C188.861710,142.105240 189.604950,143.026413 189.657974,143.715240 
	C190.037552,148.647049 190.248444,153.591812 190.204422,158.786240 
z"/>
<path fill="#DDF0B1" opacity="1.000000" stroke="none" 
	d="
M273.299103,169.482056 
	C278.841797,166.848572 283.453552,164.016785 284.502960,156.612717 
	C285.334747,150.744171 283.876282,146.664307 280.208710,142.476227 
	C280.975861,142.055557 281.471313,142.048889 281.966736,142.042206 
	C281.966736,142.042206 281.998779,142.011414 282.121277,142.320267 
	C283.464966,143.472000 284.686157,144.314880 285.907379,145.157761 
	C285.854980,149.517227 289.212585,153.844955 285.730042,158.850067 
	C283.883331,162.594574 282.335724,165.722595 280.788116,168.850616 
	C278.379272,169.142822 275.970398,169.435028 273.299103,169.482056 
z"/>
<path fill="#D7F7FE" opacity="1.000000" stroke="none" 
	d="
M81.432144,177.987946 
	C80.450676,177.848663 79.902275,177.701599 79.183212,177.322052 
	C81.719322,176.737030 84.421883,176.132599 87.133789,176.087234 
	C91.957031,176.006577 93.573952,174.421875 92.482529,169.856674 
	C91.058022,163.898254 93.469933,158.954239 96.531525,153.877930 
	C96.126961,157.315216 95.324471,160.897797 94.719704,164.513428 
	C94.519348,165.711288 94.827858,166.994247 94.944824,168.605850 
	C94.730118,170.561203 94.653320,172.204391 94.182755,173.725784 
	C93.056892,177.365768 91.211227,179.810089 86.717133,178.160461 
	C85.272415,177.630142 83.492027,178.014328 81.432144,177.987946 
z"/>
<path fill="#FCF7EB" opacity="1.000000" stroke="none" 
	d="
M102.280502,183.692535 
	C105.970268,188.970245 109.444016,194.623169 112.879700,200.647507 
	C106.223076,198.870743 103.651199,195.099716 103.460716,189.336868 
	C102.995308,187.580490 102.529892,185.824112 102.280502,183.692535 
z"/>
<path fill="#FCF7EB" opacity="1.000000" stroke="none" 
	d="
M193.988647,64.870872 
	C194.115112,59.832359 195.623718,54.797134 192.772278,49.614845 
	C198.675720,48.880497 200.526337,51.612942 198.849106,58.009960 
	C198.341751,59.945072 198.300690,62.002438 197.957779,64.697426 
	C197.231735,64.743309 195.825790,64.832169 193.988647,64.870872 
z"/>
<path fill="#FCF7EB" opacity="1.000000" stroke="none" 
	d="
M129.119171,225.318039 
	C129.483185,224.741653 129.962341,224.476807 130.695068,224.107574 
	C130.819809,229.482437 130.690994,234.961670 130.806519,241.046234 
	C131.137634,242.078796 131.224396,242.506027 131.311157,242.933273 
	C132.234863,245.671982 133.158554,248.410706 134.122711,251.505844 
	C132.721191,252.088593 131.279221,252.314911 129.234329,252.635864 
	C129.234329,243.515610 129.234329,234.572586 129.119171,225.318039 
z"/>
<path fill="#D7F7FE" opacity="1.000000" stroke="none" 
	d="
M48.685562,144.613373 
	C43.932297,145.568542 38.882336,146.283051 33.826542,146.953598 
	C27.789572,147.754288 22.201633,149.529526 17.544903,154.234451 
	C17.157026,153.831100 17.093952,153.309677 17.023304,152.395477 
	C19.950258,145.906708 26.314814,146.843369 31.285889,145.652069 
	C36.774559,144.336746 42.668728,144.713486 48.685562,144.613373 
z"/>
<path fill="#FCFFF6" opacity="1.000000" stroke="none" 
	d="
M211.967667,172.189209 
	C214.041580,172.202774 216.115509,172.216324 218.899750,172.496918 
	C221.413223,173.130936 223.216370,173.497910 225.019501,173.864868 
	C224.473740,174.797272 223.982910,176.494537 223.373306,176.538330 
	C219.327774,176.828918 215.246750,176.926132 211.202911,176.674332 
	C210.439316,176.626801 209.790695,174.732605 209.376236,173.303772 
	C210.431519,172.674438 211.199585,172.431808 211.967667,172.189209 
z"/>
<path fill="#FCF7EB" opacity="1.000000" stroke="none" 
	d="
M240.848465,87.272972 
	C240.469009,87.416954 240.089554,87.560936 239.395721,87.479477 
	C239.081345,87.254036 239.010162,86.825554 239.010162,86.825554 
	C238.351715,85.119576 237.693283,83.413589 236.531738,80.404068 
	C242.811569,84.400284 249.061630,84.636841 255.216232,80.115288 
	C255.257172,80.584755 255.298111,81.054222 255.339050,81.523689 
	C254.531433,83.171806 253.723816,84.819923 252.468796,86.783195 
	C248.297073,87.156555 244.572769,87.214767 240.848465,87.272972 
z"/>
<path fill="#DDF0B1" opacity="1.000000" stroke="none" 
	d="
M237.298569,173.460358 
	C238.094543,172.904922 239.275345,172.140533 240.205063,172.374390 
	C250.018127,174.842896 259.153503,171.441696 268.818451,169.448425 
	C268.657349,170.046997 268.117554,170.515839 267.001099,171.037796 
	C265.946655,171.386612 265.468842,171.682327 264.991058,171.978027 
	C262.586823,172.642883 260.182587,173.307755 257.053040,173.980347 
	C255.541687,174.300934 254.755646,174.613754 253.969604,174.926575 
	C252.591721,174.970016 251.213837,175.013458 249.087585,175.049072 
	C247.889145,175.066010 247.439087,175.090790 246.989014,175.115570 
	C243.848282,174.648666 240.707565,174.181763 237.298569,173.460358 
z"/>
<path fill="#D7F7FE" opacity="1.000000" stroke="none" 
	d="
M76.622803,177.160309 
	C73.714096,178.436569 70.458252,180.128647 67.014771,180.710846 
	C60.659393,181.785309 54.193935,182.208649 47.386917,182.955948 
	C46.554913,183.014404 46.110332,183.020172 45.127438,182.943054 
	C44.310776,182.700729 44.131054,182.465851 44.049965,182.155548 
	C47.041862,181.394226 49.994625,180.357635 53.033340,179.925552 
	C60.731998,178.830887 68.469231,178.007492 76.622803,177.160309 
z"/>
<path fill="#D7F7FE" opacity="1.000000" stroke="none" 
	d="
M39.170906,114.991028 
	C43.797020,119.536835 48.128994,124.239769 52.821182,129.284592 
	C53.316143,129.792313 53.483192,129.913757 53.682533,129.990814 
	C53.758305,130.151016 53.834072,130.311234 53.960819,130.732300 
	C48.197922,130.549576 39.777843,121.734528 39.170906,114.991028 
z"/>
<path fill="#FCF7EB" opacity="1.000000" stroke="none" 
	d="
M112.954315,105.120049 
	C114.511566,110.658379 115.755600,116.427223 116.956413,122.205048 
	C117.352585,124.111259 117.637115,126.040665 118.147690,128.316513 
	C118.322693,128.673553 118.110123,128.887543 117.694778,129.007477 
	C116.852486,129.752029 116.425545,130.376633 115.998596,131.001236 
	C115.998589,131.001236 116.000000,131.000000 116.000687,130.999390 
	C115.211838,130.903580 114.422318,130.808380 113.009865,130.638077 
	C117.631912,123.442123 113.402443,116.873009 112.576637,110.108978 
	C112.386208,108.549194 112.597725,106.940338 112.954315,105.120049 
z"/>
<path fill="#A8C95C" opacity="1.000000" stroke="none" 
	d="
M192.710663,116.282990 
	C193.054703,116.262123 193.098526,116.690292 192.916763,117.177704 
	C190.648880,119.196983 188.374680,120.536499 186.542389,122.327988 
	C185.309723,123.533203 184.701950,125.377525 183.814606,126.935921 
	C184.530228,128.727783 185.245834,130.519638 185.971771,132.655609 
	C185.226379,132.760773 184.470688,132.521805 183.473221,132.108368 
	C178.537842,126.091080 179.246689,123.296204 186.039627,120.063499 
	C188.245468,119.013763 190.262985,117.568306 192.710663,116.282990 
z"/>
<path fill="#FCF7EB" opacity="1.000000" stroke="none" 
	d="
M112.089951,50.151684 
	C108.255241,55.542011 106.587036,61.691227 106.435745,68.736176 
	C104.046814,65.885368 103.384216,62.659893 105.387619,59.046783 
	C106.145164,57.680565 106.884995,55.745983 106.495728,54.399151 
	C104.814857,48.583492 108.037849,49.197807 112.089951,50.151684 
z"/>
<path fill="#FCF7EB" opacity="1.000000" stroke="none" 
	d="
M131.427063,221.782074 
	C130.742096,220.392776 130.358368,218.689346 129.825211,217.034058 
	C128.997681,214.464859 117.934067,208.071732 115.121155,208.480835 
	C114.965309,208.503510 114.823868,208.625214 114.337471,208.847839 
	C114.349739,207.790375 114.700256,206.585907 115.163956,205.052216 
	C119.522614,207.169327 123.842537,209.496964 127.990395,212.098892 
	C131.417938,214.248947 132.793594,217.438416 131.427063,221.782074 
z"/>
<path fill="#FCF7EB" opacity="1.000000" stroke="none" 
	d="
M134.573547,49.005299 
	C136.094757,52.778446 136.782379,56.762047 138.522263,60.215508 
	C139.160385,61.482094 142.290359,61.493267 144.639069,62.043724 
	C144.993896,62.756653 144.993301,63.502975 144.990768,64.622513 
	C143.117157,65.605804 141.245468,66.215874 139.019043,66.977455 
	C138.176437,65.947311 137.688599,64.765656 137.068192,62.931961 
	C136.726456,61.864449 136.517258,61.448971 136.308075,61.033493 
	C134.892548,57.274975 133.477020,53.516457 131.859039,49.455620 
	C132.490005,49.104107 133.323441,49.054909 134.573547,49.005299 
z"/>
<path fill="#FCF7EB" opacity="1.000000" stroke="none" 
	d="
M162.217926,223.953552 
	C160.519653,215.665253 164.628006,210.169327 171.518585,205.879410 
	C171.318970,206.960480 171.059479,208.397049 170.203827,209.191620 
	C167.044006,212.125900 164.911575,215.227386 165.527145,219.933304 
	C165.681976,221.116913 163.623245,222.590088 162.217926,223.953552 
z"/>
<path fill="#FCF7EB" opacity="1.000000" stroke="none" 
	d="
M101.790009,82.102798 
	C100.898491,83.146004 100.124153,83.793732 99.349815,84.441452 
	C98.953201,83.772636 98.186424,83.085114 98.219116,82.437981 
	C98.459549,77.677589 98.839729,72.923531 99.251541,68.174034 
	C99.281265,67.831245 99.908272,67.540245 101.279030,66.303780 
	C102.568710,71.918930 101.797203,76.861366 101.790009,82.102798 
z"/>
<path fill="#F4FEFF" opacity="1.000000" stroke="none" 
	d="
M71.226189,140.799591 
	C71.226189,140.799591 71.627235,140.858521 72.012985,141.194336 
	C73.508392,142.324402 74.618065,143.118652 76.561882,144.509949 
	C73.906784,144.854263 72.334068,145.058212 70.761360,145.262177 
	C67.821579,145.088760 64.881805,144.915344 61.495171,144.373138 
	C61.010208,143.681305 60.991699,143.357132 60.992783,143.031845 
	C62.325790,141.922745 63.658802,140.813660 65.334320,139.479279 
	C67.526619,139.769196 69.376404,140.284393 71.226189,140.799591 
z"/>
<path fill="#DDF0B1" opacity="1.000000" stroke="none" 
	d="
M211.746094,171.920273 
	C211.199585,172.431808 210.431519,172.674438 209.342224,172.907898 
	C206.378754,170.500504 203.736511,168.102295 201.081482,164.984436 
	C200.760300,163.156265 200.451904,162.047729 200.143509,160.939194 
	C200.159515,159.495667 200.175507,158.052139 200.511597,156.360901 
	C201.412872,156.543777 201.994049,156.974350 202.575241,157.404922 
	C203.527359,163.429550 203.544830,170.041290 211.746094,171.920273 
z"/>
<path fill="#FCF7EB" opacity="1.000000" stroke="none" 
	d="
M129.961304,48.395943 
	C124.443703,47.013157 119.120293,48.404053 113.413681,50.043411 
	C117.921059,43.924072 126.611710,42.899113 129.961304,48.395943 
z"/>
<path fill="#FCF7EB" opacity="1.000000" stroke="none" 
	d="
M225.066544,92.120483 
	C220.043259,95.223190 215.019958,98.325897 209.663544,101.544052 
	C212.059891,95.003128 216.658371,90.955818 224.610168,91.291840 
	C225.038712,91.755455 225.052628,91.937965 225.066544,92.120483 
z"/>
<path fill="#FCF7EB" opacity="1.000000" stroke="none" 
	d="
M197.634521,147.060532 
	C197.878098,147.912018 198.121658,148.763519 198.590759,150.257385 
	C199.030594,152.191681 199.244904,153.483627 199.459229,154.775558 
	C198.828720,154.668274 197.766891,154.743454 197.632675,154.426224 
	C195.747543,149.970093 191.134857,146.404831 193.057693,140.281586 
	C193.276505,139.863022 193.452560,139.856949 193.870361,140.230804 
	C194.910828,141.843597 195.709549,143.076431 196.508255,144.309280 
	C196.508255,144.309280 196.584061,144.345718 196.590942,144.676239 
	C196.943405,145.691345 197.288956,146.375931 197.634521,147.060532 
z"/>
<path fill="#D7F7FE" opacity="1.000000" stroke="none" 
	d="
M81.870850,106.559464 
	C83.980492,107.063477 86.167389,107.889725 88.667908,108.879974 
	C90.450127,110.616539 91.918739,112.189087 93.703537,114.198166 
	C94.071716,115.030655 94.123695,115.426613 94.175674,115.822571 
	C94.175674,115.822571 94.040001,115.959854 93.971764,116.029114 
	C89.918381,113.026138 85.933243,109.953918 81.870850,106.559464 
z"/>
<path fill="#DDF0B1" opacity="1.000000" stroke="none" 
	d="
M241.282654,87.425400 
	C244.572769,87.214767 248.297073,87.156555 252.413986,87.165695 
	C253.321976,88.082390 253.837357,88.931740 254.791687,90.226974 
	C255.757431,91.861870 256.284241,93.050888 256.811035,94.239914 
	C252.509033,90.366608 248.222839,86.457504 241.282654,87.425400 
z"/>
<path fill="#F4FEFF" opacity="1.000000" stroke="none" 
	d="
M52.042027,144.736603 
	C51.861530,144.756363 51.681034,144.776108 51.238007,144.722076 
	C50.869686,144.009537 50.793442,143.364166 50.652084,142.733368 
	C50.337685,141.330444 49.990688,139.934799 49.656982,138.536194 
	C51.106419,138.859406 52.638409,138.986984 53.984539,139.555023 
	C55.693253,140.276047 57.251133,141.354492 58.549225,142.640778 
	C56.163605,143.580673 54.102814,144.158630 52.042027,144.736603 
z"/>
<path fill="#DDF0B1" opacity="1.000000" stroke="none" 
	d="
M255.243607,112.909927 
	C259.541687,108.580391 260.380188,103.453644 258.595093,97.282402 
	C259.259918,96.935341 259.617157,96.971062 259.974396,97.006790 
	C260.539215,101.631180 262.773804,106.408035 259.059418,110.679749 
	C258.186951,111.683151 256.784210,112.225479 255.243607,112.909927 
z"/>
<path fill="#FCF7EB" opacity="1.000000" stroke="none" 
	d="
M94.503235,115.876129 
	C94.123695,115.426613 94.071716,115.030655 94.009506,114.334488 
	C94.320976,112.449417 94.642685,110.864555 95.015060,109.030037 
	C96.767250,111.563286 98.084595,113.467857 99.401939,115.372429 
	C99.880356,115.019104 100.358780,114.665779 100.837204,114.312454 
	C100.084030,115.111366 99.330864,115.910278 98.270576,116.853302 
	C96.919243,116.641510 95.875015,116.285606 94.503235,115.876129 
z"/>
<path fill="#FCF7EB" opacity="1.000000" stroke="none" 
	d="
M260.329041,96.944687 
	C259.617157,96.971062 259.259918,96.935341 258.635132,96.894104 
	C258.367584,96.888588 258.180176,96.802505 258.106934,96.577942 
	C257.952026,96.185432 257.826172,96.062912 257.656128,95.985809 
	C257.438782,95.610931 257.221436,95.236046 256.907562,94.550537 
	C256.284241,93.050888 255.757431,91.861870 255.063141,90.378342 
	C261.134796,90.936935 262.693329,92.767609 260.329041,96.944687 
z"/>
<path fill="#FCF7EB" opacity="1.000000" stroke="none" 
	d="
M192.113190,174.922699 
	C191.819244,171.678925 191.871002,168.291428 191.906845,164.474762 
	C195.167953,166.690277 195.431061,171.662445 192.113190,174.922699 
z"/>
<path fill="#FCF7EB" opacity="1.000000" stroke="none" 
	d="
M101.883293,194.284424 
	C103.157890,196.580139 104.079491,198.780899 105.601151,202.414597 
	C103.397903,201.466492 101.673889,201.160004 101.593849,200.612991 
	C101.286682,198.513657 101.506866,196.337173 101.883293,194.284424 
z"/>
<path fill="#FCF7EB" opacity="1.000000" stroke="none" 
	d="
M159.528595,251.934052 
	C159.584808,248.204971 160.000443,244.395767 160.677338,240.282440 
	C162.438492,244.100510 163.220734,248.159241 159.528595,251.934052 
z"/>
<path fill="#FCFEEA" opacity="1.000000" stroke="none" 
	d="
M281.160278,168.873550 
	C282.335724,165.722595 283.883331,162.594574 285.685974,159.222900 
	C287.745819,163.581177 286.741455,165.840546 281.160278,168.873550 
z"/>
<path fill="#D7F7FE" opacity="1.000000" stroke="none" 
	d="
M34.392311,183.952057 
	C33.768192,183.180023 33.513721,182.417694 33.140167,181.372864 
	C35.779072,181.418045 38.537064,181.745728 41.597374,182.477097 
	C40.260681,183.242050 38.621677,183.603333 36.982674,183.964600 
	C36.242432,183.963654 35.502197,183.962708 34.392311,183.952057 
z"/>
<path fill="#FCF7EB" opacity="1.000000" stroke="none" 
	d="
M105.317566,122.957581 
	C104.639618,122.904831 104.393211,122.726753 104.100784,122.263336 
	C104.584129,120.745338 105.170860,119.433334 105.757584,118.121323 
	C106.418137,118.468033 107.078697,118.814743 107.739258,119.161453 
	C107.056755,120.411491 106.374260,121.661530 105.317566,122.957581 
z"/>
<path fill="#A8C95C" opacity="1.000000" stroke="none" 
	d="
M199.639053,154.917480 
	C199.244904,153.483627 199.030594,152.191681 198.812958,150.505707 
	C200.135330,152.281097 201.461014,154.450516 202.680969,157.012421 
	C201.994049,156.974350 201.412872,156.543777 200.619202,155.941650 
	C200.221634,155.524200 200.025681,155.287308 199.639053,154.917480 
z"/>
<path fill="#DDF0B1" opacity="1.000000" stroke="none" 
	d="
M225.342926,173.890121 
	C223.216370,173.497910 221.413223,173.130936 219.342255,172.537231 
	C221.879471,172.416946 224.684540,172.523407 227.733978,172.905762 
	C227.207672,173.426208 226.436996,173.670792 225.342926,173.890121 
z"/>
<path fill="#D7F7FE" opacity="1.000000" stroke="none" 
	d="
M57.174320,132.885727 
	C57.174320,132.885727 57.594086,132.957977 57.922195,133.237640 
	C58.541012,133.670029 58.831722,133.822723 59.122429,133.975433 
	C60.211559,134.590195 61.300690,135.204941 62.697166,136.168076 
	C63.006519,136.696762 63.008526,136.877060 63.010536,137.057373 
	C60.386387,135.926193 57.762238,134.795029 55.447197,133.316742 
	C56.228981,132.941650 56.701649,132.913696 57.174320,132.885727 
z"/>
<path fill="#D7F7FE" opacity="1.000000" stroke="none" 
	d="
M52.483418,144.822235 
	C54.102814,144.158630 56.163605,143.580673 58.614616,142.995819 
	C59.446682,142.996735 59.888523,143.004562 60.661575,143.022125 
	C60.991699,143.357132 61.010208,143.681305 61.072372,144.242645 
	C58.372559,144.623260 55.648685,144.765564 52.483418,144.822235 
z"/>
<path fill="#FCF7EB" opacity="1.000000" stroke="none" 
	d="
M99.874115,178.126297 
	C100.761147,179.077393 101.394455,180.157898 102.049957,181.612976 
	C100.509689,182.167862 98.947227,182.348190 96.053993,182.682114 
	C97.729141,180.603012 98.674774,179.429367 99.874115,178.126297 
z"/>
<path fill="#FCFEFD" opacity="1.000000" stroke="none" 
	d="
M37.250374,184.257690 
	C38.621677,183.603333 40.260681,183.242050 41.972679,182.590118 
	C42.489124,182.225418 42.932583,182.151382 43.712997,182.116455 
	C44.131054,182.465851 44.310776,182.700729 44.794334,182.959442 
	C43.138119,186.727036 40.112602,184.558365 37.250374,184.257690 
z"/>
<path fill="#DDF0B1" opacity="1.000000" stroke="none" 
	d="
M279.077179,141.810455 
	C276.857666,140.985016 274.638184,140.159592 272.221985,139.039337 
	C272.492188,138.509308 272.959106,138.274109 273.943878,138.300018 
	C275.634796,138.731567 276.807800,138.901993 277.980835,139.072418 
	C277.980835,139.072418 278.398376,139.120346 278.654663,139.449890 
	C278.966339,140.456451 279.021759,141.133453 279.077179,141.810455 
z"/>
<path fill="#FCF7EB" opacity="1.000000" stroke="none" 
	d="
M176.885590,135.934082 
	C175.336090,135.470520 173.838669,134.569809 172.364960,133.113342 
	C173.926849,132.372757 175.465012,132.187897 177.003174,132.003036 
	C177.003174,132.003036 177.000000,132.000000 176.998474,131.998474 
	C176.977173,133.163605 176.957397,134.330261 176.885590,135.934082 
z"/>
<path fill="#9CC444" opacity="1.000000" stroke="none" 
	d="
M233.816788,89.658173 
	C232.031097,90.623207 230.245392,91.588234 228.243256,92.034058 
	C228.022110,91.344955 228.017410,91.175064 228.012711,91.005165 
	C228.576904,90.859230 229.141113,90.713303 230.157349,90.412476 
	C230.609390,90.257568 230.967957,90.062065 231.324677,90.008148 
	C232.393188,89.855545 233.104980,89.756859 233.816788,89.658173 
z"/>
<path fill="#FCF7EB" opacity="1.000000" stroke="none" 
	d="
M201.519440,57.709225 
	C202.181915,56.810604 203.016678,56.210079 203.851456,55.609550 
	C204.124619,56.473038 204.397797,57.336521 204.670959,58.200008 
	C203.677872,58.135777 202.684799,58.071548 201.519440,57.709225 
z"/>
<path fill="#FCF7EB" opacity="1.000000" stroke="none" 
	d="
M191.051788,95.664749 
	C192.412109,96.041969 193.750275,96.744209 195.088440,97.446442 
	C194.594284,98.029999 194.100143,98.613556 193.605988,99.197113 
	C192.747192,98.127991 191.888412,97.058876 191.051788,95.664749 
z"/>
<path fill="#BEEFFA" opacity="1.000000" stroke="none" 
	d="
M71.101128,140.485199 
	C69.376404,140.284393 67.526619,139.769196 65.350128,139.106720 
	C64.995308,138.553268 64.967194,138.147064 64.930573,137.436356 
	C66.940063,138.144821 68.958061,139.157806 71.101128,140.485199 
z"/>
<path fill="#FCFFF6" opacity="1.000000" stroke="none" 
	d="
M229.993790,173.996735 
	C231.058411,173.548782 232.155838,173.421875 233.644867,173.452789 
	C233.556915,174.372238 232.999649,175.805359 232.613388,175.760681 
	C231.707596,175.655884 230.883667,174.843643 229.993790,173.996735 
z"/>
<path fill="#FCF7EB" opacity="1.000000" stroke="none" 
	d="
M264.095978,99.005623 
	C264.890350,98.316010 265.685852,97.997780 266.481323,97.679558 
	C266.483765,98.558807 266.486237,99.438057 266.488708,100.317307 
	C265.691498,100.003876 264.894287,99.690445 264.095978,99.005623 
z"/>
<path fill="#FCF7EB" opacity="1.000000" stroke="none" 
	d="
M192.449951,73.935600 
	C192.161743,72.509529 192.227478,71.007217 192.536514,69.215607 
	C192.787842,70.570656 192.795868,72.215012 192.449951,73.935600 
z"/>
<path fill="#FCF7EB" opacity="1.000000" stroke="none" 
	d="
M265.315674,109.211838 
	C266.072083,110.182854 266.500458,111.192101 266.928864,112.201355 
	C266.377136,112.324364 265.825439,112.447380 265.273712,112.570396 
	C265.178345,111.463615 265.083008,110.356842 265.315674,109.211838 
z"/>
<path fill="#FCF7EB" opacity="1.000000" stroke="none" 
	d="
M113.751549,213.185532 
	C114.222496,213.966827 114.444763,214.931381 114.333565,215.945358 
	C113.834358,215.119446 113.668617,214.244125 113.751549,213.185532 
z"/>
<path fill="#FCF7EB" opacity="1.000000" stroke="none" 
	d="
M233.856628,89.506897 
	C233.104980,89.756859 232.393188,89.855545 231.342926,89.739746 
	C231.003448,89.346176 231.002411,89.167099 231.001358,88.988022 
	C231.794083,88.569153 232.586807,88.150284 233.685516,88.131721 
	C234.010513,88.715408 234.029526,88.898788 234.048553,89.082176 
	C234.048553,89.082176 233.896484,89.355614 233.856628,89.506897 
z"/>
<path fill="#FCFFF6" opacity="1.000000" stroke="none" 
	d="
M203.200867,176.573151 
	C202.132095,176.675629 201.304794,176.565155 200.477478,176.454697 
	C200.581589,176.036316 200.685699,175.617935 200.789810,175.199570 
	C201.673981,175.586441 202.558151,175.973328 203.200867,176.573151 
z"/>
<path fill="#A8C95C" opacity="1.000000" stroke="none" 
	d="
M189.186111,136.247528 
	C190.402649,136.670486 191.683945,137.394287 192.751556,138.520599 
	C192.359818,138.960556 192.181717,138.998001 192.003616,139.035431 
	C191.086029,138.206421 190.168442,137.377411 189.186111,136.247528 
z"/>
<path fill="#DDF0B1" opacity="1.000000" stroke="none" 
	d="
M234.429230,89.116066 
	C234.029526,88.898788 234.010513,88.715408 233.964096,88.256584 
	C235.380264,87.636887 236.823822,87.292633 238.638763,86.886963 
	C239.010162,86.825554 239.081345,87.254036 239.087311,87.470459 
	C237.665466,88.174576 236.237686,88.662262 234.429230,89.116066 
z"/>
<path fill="#FCFFF6" opacity="1.000000" stroke="none" 
	d="
M199.851715,161.151413 
	C200.451904,162.047729 200.760300,163.156265 201.055481,164.629929 
	C200.548126,163.784576 200.054016,162.574097 199.851715,161.151413 
z"/>
<path fill="#FCFEEE" opacity="1.000000" stroke="none" 
	d="
M285.907227,144.783722 
	C284.686157,144.314880 283.464966,143.472000 282.105865,142.331238 
	C283.281036,142.825470 284.594055,143.617584 285.907227,144.783722 
z"/>
<path fill="#FCFEEE" opacity="1.000000" stroke="none" 
	d="
M279.227417,141.943054 
	C279.021759,141.133453 278.966339,140.456451 278.864685,139.443665 
	C279.854492,139.850433 280.890533,140.592987 281.946655,141.688873 
	C281.471313,142.048889 280.975861,142.055557 280.115662,142.141907 
	C279.750916,142.221573 279.377686,142.075638 279.227417,141.943054 
z"/>
<path fill="#FCFEEE" opacity="1.000000" stroke="none" 
	d="
M277.937195,138.721283 
	C276.807800,138.901993 275.634796,138.731567 274.223022,138.298264 
	C275.287354,138.146988 276.590454,138.258575 277.937195,138.721283 
z"/>
<path fill="#FCF7EB" opacity="1.000000" stroke="none" 
	d="
M172.191010,205.876205 
	C172.556564,204.832581 173.294205,203.812042 174.343750,202.729187 
	C173.958130,203.744354 173.260620,204.821823 172.191010,205.876205 
z"/>
<path fill="#FCF7EB" opacity="1.000000" stroke="none" 
	d="
M161.163208,234.861481 
	C160.742920,234.146149 160.597839,233.251785 160.665436,232.157166 
	C161.064880,232.865417 161.251648,233.773926 161.163208,234.861481 
z"/>
<path fill="#FCF7EB" opacity="1.000000" stroke="none" 
	d="
M98.522614,94.695320 
	C98.528236,95.448410 98.324112,95.982574 98.119995,96.516731 
	C97.846909,96.382088 97.573830,96.247444 97.300751,96.112793 
	C97.638130,95.567329 97.975502,95.021866 98.522614,94.695320 
z"/>
<path fill="#FCF7EB" opacity="1.000000" stroke="none" 
	d="
M97.210129,56.796852 
	C97.571991,56.197441 97.996078,55.896008 98.420166,55.594574 
	C98.534317,56.039948 98.648476,56.485317 98.762634,56.930687 
	C98.265877,56.985401 97.769112,57.040119 97.210129,56.796852 
z"/>
<path fill="#FCFFF6" opacity="1.000000" stroke="none" 
	d="
M254.163879,175.195206 
	C254.755646,174.613754 255.541687,174.300934 256.662842,173.986343 
	C256.118011,174.477676 255.238083,174.970749 254.163879,175.195206 
z"/>
<path fill="#FCF7EB" opacity="1.000000" stroke="none" 
	d="
M113.063263,202.193451 
	C113.782166,202.585861 114.466881,203.362991 115.213081,204.445190 
	C114.526062,204.026230 113.777573,203.302185 113.063263,202.193451 
z"/>
<path fill="#F9FEF3" opacity="1.000000" stroke="none" 
	d="
M265.153870,172.209564 
	C265.468842,171.682327 265.946655,171.386612 266.721710,171.100937 
	C266.451569,171.554337 265.884155,171.997711 265.153870,172.209564 
z"/>
<path fill="#FCFFF6" opacity="1.000000" stroke="none" 
	d="
M247.034760,175.399048 
	C247.439087,175.090790 247.889145,175.066010 248.675446,175.082764 
	C248.687714,175.610992 248.363770,176.097702 248.039825,176.584412 
	C247.720062,176.283783 247.400284,175.983154 247.034760,175.399048 
z"/>
<path fill="#DDF0B1" opacity="1.000000" stroke="none" 
	d="
M227.641739,90.957939 
	C228.017410,91.175064 228.022110,91.344955 228.011536,91.769455 
	C227.550095,92.080292 227.103928,92.136528 226.346191,92.327576 
	C225.877579,92.392952 225.720505,92.323509 225.315002,92.187279 
	C225.052628,91.937965 225.038712,91.755455 225.029388,91.298653 
	C225.779587,90.986481 226.525177,90.948601 227.641739,90.957939 
z"/>
<path fill="#BEEFFA" opacity="1.000000" stroke="none" 
	d="
M56.988701,132.648483 
	C56.701649,132.913696 56.228981,132.941650 55.402824,132.968567 
	C55.045177,132.779419 55.041019,132.591309 55.088356,132.124481 
	C55.694263,132.034241 56.248672,132.222733 56.988701,132.648483 
z"/>
<path fill="#FCF7EB" opacity="1.000000" stroke="none" 
	d="
M161.352936,225.805588 
	C161.209641,225.621719 161.285767,225.258469 161.591049,224.717087 
	C161.737579,224.901367 161.654968,225.263794 161.352936,225.805588 
z"/>
<path fill="#DDF0B1" opacity="1.000000" stroke="none" 
	d="
M230.782990,89.140991 
	C231.002411,89.167099 231.003448,89.346176 230.986221,89.793663 
	C230.967957,90.062065 230.609390,90.257568 230.405777,90.257538 
	C230.322983,89.936333 230.443802,89.615150 230.782990,89.140991 
z"/>
<path fill="#FCF7EB" opacity="1.000000" stroke="none" 
	d="
M100.012161,176.178070 
	C100.324280,176.064499 100.472664,176.219437 100.313950,176.626709 
	C100.164673,176.728409 100.006241,176.295959 100.012161,176.178070 
z"/>
<path fill="#FCF7EB" opacity="1.000000" stroke="none" 
	d="
M192.120956,139.261627 
	C192.181717,138.998001 192.359818,138.960556 192.803467,138.859238 
	C193.105240,138.982239 193.141479,139.169128 193.155396,139.640381 
	C192.834808,139.779114 192.536545,139.633484 192.120956,139.261627 
z"/>
<path fill="#FCFEEE" opacity="1.000000" stroke="none" 
	d="
M268.840454,137.556152 
	C268.657928,137.765060 268.378082,137.669998 268.010651,137.253464 
	C268.188965,137.075638 268.462311,137.182358 268.840454,137.556152 
z"/>
<path fill="#BEEFFA" opacity="1.000000" stroke="none" 
	d="
M63.288654,137.033752 
	C63.008526,136.877060 63.006519,136.696762 63.007622,136.245636 
	C63.308067,136.122787 63.605392,136.270767 64.006653,136.651367 
	C63.929317,136.926056 63.748043,136.968079 63.288654,137.033752 
z"/>
<path fill="#D7F7FE" opacity="1.000000" stroke="none" 
	d="
M16.639984,155.038116 
	C16.974543,160.059052 16.945421,165.117004 16.860237,170.609756 
	C15.229537,166.979614 13.375273,162.985428 12.313695,158.790634 
	C12.098635,157.940826 14.877625,156.333328 16.639984,155.038116 
z"/>
<path fill="#D7F7FE" opacity="1.000000" stroke="none" 
	d="
M21.204548,176.492477 
	C20.484175,176.865189 19.669987,176.915131 18.451143,176.958313 
	C17.733219,175.779694 17.419950,174.607834 17.149494,173.063431 
	C18.498446,173.850494 19.804588,175.010101 21.204548,176.492477 
z"/>
<path fill="#BEEFFA" opacity="1.000000" stroke="none" 
	d="
M71.003326,145.539902 
	C72.334068,145.058212 73.906784,144.854263 76.561882,144.509949 
	C74.618065,143.118652 73.508392,142.324402 72.207672,141.250641 
	C74.498482,141.783340 77.057671,142.426926 79.416008,143.508469 
	C80.142334,143.841568 80.862633,145.570404 80.595482,146.295120 
	C80.332664,147.008072 78.738350,147.748886 77.860085,147.614731 
	C75.616013,147.271927 73.445335,146.448685 71.003326,145.539902 
z"/>
<path fill="#D7F7FE" opacity="1.000000" stroke="none" 
	d="
M30.746212,180.795914 
	C27.290173,181.926010 24.042477,181.594955 22.021936,177.437683 
	C24.824627,178.236923 27.668890,179.389893 30.746212,180.795914 
z"/>
<path fill="#BEEFFA" opacity="1.000000" stroke="none" 
	d="
M53.664467,129.808868 
	C53.483192,129.913757 53.316143,129.792313 53.100311,129.496063 
	C53.295753,129.291290 53.504810,129.378387 53.664467,129.808868 
z"/>
<path fill="#BEEFFA" opacity="1.000000" stroke="none" 
	d="
M59.004227,133.750015 
	C58.831722,133.822723 58.541012,133.670029 58.125008,133.302643 
	C58.295147,133.233505 58.590584,133.379044 59.004227,133.750015 
z"/>
<path fill="#92C41B" opacity="1.000000" stroke="none" 
	d="
M184.235611,126.958511 
	C184.701950,125.377525 185.309723,123.533203 186.542389,122.327988 
	C188.374680,120.536499 190.648880,119.196983 192.935059,117.392136 
	C200.580902,116.749435 204.209518,110.829391 208.823013,106.337570 
	C209.964706,105.225975 211.138733,104.147583 212.644012,103.011703 
	C214.036255,105.600548 213.613174,107.416336 210.976944,109.185341 
	C208.732651,110.691345 206.954376,113.097946 205.408432,115.400536 
	C200.422852,122.826393 192.197128,124.249443 184.235611,126.958511 
z"/>
<path fill="#92C41B" opacity="1.000000" stroke="none" 
	d="
M216.947250,100.320099 
	C218.053833,99.289833 219.137222,98.622849 220.592712,97.939796 
	C221.484863,98.529961 222.110580,99.075264 222.502716,99.755257 
	C223.294083,101.127480 223.958527,102.572891 224.675308,103.988121 
	C222.868225,104.189651 221.035782,104.676880 219.260544,104.519386 
	C217.108856,104.328491 215.495605,103.300735 216.947250,100.320099 
z"/>
<path fill="#A8C95C" opacity="1.000000" stroke="none" 
	d="
M196.666977,143.950500 
	C195.709549,143.076431 194.910828,141.843597 194.130859,140.275146 
	C195.041656,141.156937 195.933670,142.374329 196.666977,143.950500 
z"/>
<path fill="#A8C95C" opacity="1.000000" stroke="none" 
	d="
M197.929626,146.932465 
	C197.288956,146.375931 196.943405,145.691345 196.584503,144.717789 
	C197.122330,145.220688 197.673523,146.012543 197.929626,146.932465 
z"/>
<path fill="#DDF0B1" opacity="1.000000" stroke="none" 
	d="
M257.568542,96.162094 
	C257.826172,96.062912 257.952026,96.185432 258.071564,96.481064 
	C258.109467,96.608765 257.718231,96.651680 257.718231,96.651680 
	C257.718231,96.651680 257.480957,96.338387 257.568542,96.162094 
z"/>
<path fill="#E7340C" opacity="1.000000" stroke="none" 
	d="
M136.004974,60.952400 
	C136.517258,61.448971 136.726456,61.864449 136.921783,62.633659 
	C136.492157,63.354588 135.679428,63.771904 135.718536,64.081680 
	C136.792419,72.588066 138.101898,81.067467 139.020081,89.589287 
	C139.349564,92.647316 138.489685,95.821274 138.688080,98.909210 
	C138.872681,101.782303 139.245255,104.842567 140.434631,107.402496 
	C141.996429,110.764000 145.440262,110.939552 148.092819,109.056198 
	C151.577560,106.582001 153.947067,103.548241 154.256165,98.443413 
	C154.668900,91.626945 156.284546,84.690681 158.573303,78.227150 
	C161.733459,69.302734 165.870499,60.710060 169.842407,52.092026 
	C172.702942,45.885414 180.428635,44.603279 186.340042,47.600006 
	C192.921661,50.936481 192.666840,56.262028 191.924728,61.684738 
	C190.924957,68.990273 189.977219,76.513390 187.409042,83.342102 
	C183.974350,92.474907 178.997314,101.026482 174.709778,109.840866 
	C174.005142,111.289467 173.291245,112.761902 172.836670,114.298759 
	C171.118195,120.108803 168.465164,121.886551 162.532532,120.971054 
	C151.765457,119.309540 141.141998,119.190300 130.860840,123.575233 
	C128.168243,124.723618 125.423248,125.892380 122.583961,126.476784 
	C121.575539,126.684349 119.385361,125.378983 119.163177,124.429863 
	C118.301445,120.748779 117.558525,116.927231 117.606804,113.168701 
	C117.715088,104.738640 113.171379,97.800156 110.752487,90.205750 
	C107.775757,80.859955 106.911568,71.765175 109.785164,62.156582 
	C111.870552,55.183559 116.308533,50.754269 123.006569,49.852959 
	C128.835449,49.068604 130.956757,52.633530 133.092270,56.753006 
	C133.837418,58.190434 134.825012,59.502174 136.004974,60.952400 
z"/>
<path fill="#FCF7EB" opacity="1.000000" stroke="none" 
	d="
M139.549286,75.125717 
	C139.910675,75.891273 140.052124,76.860985 139.864746,77.989731 
	C139.467041,77.209137 139.398193,76.269508 139.549286,75.125717 
z"/>
<path fill="#FFFFFF" opacity="1.000000" stroke="none" 
	d="
M108.109337,141.269363 
	C108.472160,140.087677 108.981728,139.201660 109.745956,138.145157 
	C111.795639,137.869568 113.698097,137.353226 115.352768,137.785461 
	C116.754715,138.151688 117.870155,139.614746 119.249084,140.944946 
	C119.385788,141.297470 119.335648,141.290375 118.923279,141.197266 
	C117.334900,142.338257 116.158897,143.572357 114.754211,144.945923 
	C114.365242,145.164185 114.204964,145.242935 114.044693,145.321671 
	C113.600372,145.246979 113.156059,145.172302 112.371346,145.079407 
	C110.772659,143.895798 109.514366,142.730423 108.109337,141.269363 
z"/>
<path fill="#FFFFFF" opacity="1.000000" stroke="none" 
	d="
M176.962769,131.634521 
	C175.465012,132.187897 173.926849,132.372757 172.153198,132.866974 
	C170.788986,133.041275 169.660263,132.906219 168.227600,132.615814 
	C168.393021,130.135315 166.801163,126.939262 170.659988,126.049889 
	C175.049088,125.038292 175.425476,128.819153 176.962769,131.634521 
z"/>
<path fill="#FFFFFF" opacity="1.000000" stroke="none" 
	d="
M116.311424,130.965149 
	C116.425545,130.376633 116.852486,129.752029 117.588905,129.114899 
	C117.473679,129.711258 117.048965,130.320160 116.311424,130.965149 
z"/>
<path fill="#FCF7EB" opacity="1.000000" stroke="none" 
	d="
M144.995728,74.001305 
	C144.539307,74.453926 144.082886,74.906548 143.626465,75.359169 
	C143.930176,73.414711 144.233887,71.470253 144.765350,70.162399 
	C144.993988,71.866440 144.994858,72.933876 144.995728,74.001305 
z"/>
<path fill="#FFFFFF" opacity="1.000000" stroke="none" 
	d="
M145.333359,73.966614 
	C144.994858,72.933876 144.993988,71.866440 144.993195,70.398689 
	C145.887039,70.552032 146.780807,71.105705 147.674561,71.659370 
	C147.006714,72.416885 146.338867,73.174400 145.333359,73.966614 
z"/>
<path fill="#F39802" opacity="1.000000" stroke="none" 
	d="
M113.988342,145.654785 
	C114.204964,145.242935 114.365242,145.164185 115.005554,145.037445 
	C115.661850,145.016434 115.838120,145.043396 116.014389,145.070374 
	C118.775963,143.753235 122.508797,143.164383 124.134880,140.995804 
	C132.168121,130.282532 143.572662,131.425308 154.475189,132.268829 
	C161.664383,132.825058 168.687347,135.529968 176.253021,137.387772 
	C175.280029,139.872482 174.793762,141.114243 174.822372,141.041168 
	C177.409286,142.571045 180.275085,143.262543 181.137802,144.967560 
	C183.550171,149.735260 185.109573,154.931686 187.055527,159.939499 
	C187.998016,162.364944 189.456467,164.662460 189.979584,167.164627 
	C191.498917,174.431931 187.606934,180.235458 184.353149,186.195847 
	C183.345230,188.042160 182.732285,190.104080 181.863373,192.431580 
	C178.366379,195.833572 174.912064,198.835815 171.536911,201.924545 
	C169.944016,203.382278 168.736221,205.384781 166.950089,206.484528 
	C161.168747,210.044159 159.897293,215.063980 159.806686,221.626129 
	C159.673920,231.239136 158.506119,240.903030 156.906998,250.398331 
	C156.271591,254.171265 153.652206,257.821289 151.211823,260.965118 
	C150.351028,262.074066 147.332428,261.508057 145.141144,261.000916 
	C143.169556,255.270325 142.379883,249.466415 139.293396,245.410233 
	C135.050446,239.834198 136.055588,234.254547 136.381439,228.395340 
	C136.481781,226.591064 136.786453,224.798172 137.147888,222.657410 
	C138.452759,219.091919 140.379532,215.879211 137.373825,212.469864 
	C136.227112,212.992081 135.079025,213.514938 133.930923,214.037781 
	C128.507568,210.105591 122.729874,206.563690 117.800018,202.087936 
	C115.050461,199.591660 113.739868,195.524948 111.727249,192.198334 
	C109.778214,188.976837 107.985825,185.627075 105.728622,182.632095 
	C100.095100,175.157242 102.955788,167.486420 105.580963,160.257935 
	C107.431526,155.162384 111.084023,150.721237 113.988342,145.654785 
M127.711723,204.544174 
	C127.985703,204.283661 128.259689,204.023132 128.533676,203.762619 
	C128.425430,203.649582 128.229370,203.432037 128.221619,203.438568 
	C127.932625,203.681396 127.661026,203.944946 127.711723,204.544174 
z"/>
<path fill="#FCF7EB" opacity="1.000000" stroke="none" 
	d="
M116.186371,144.796127 
	C115.838120,145.043396 115.661850,145.016434 115.234238,144.897964 
	C116.158897,143.572357 117.334900,142.338257 118.898308,141.201477 
	C118.309914,142.373138 117.334129,143.447510 116.186371,144.796127 
z"/>
<path fill="#F99405" opacity="1.000000" stroke="none" 
	d="
M136.997559,223.000061 
	C136.786453,224.798172 136.481781,226.591064 136.381439,228.395340 
	C136.055588,234.254547 135.050446,239.834198 139.293396,245.410233 
	C142.379883,249.466415 143.169556,255.270325 144.967834,260.697418 
	C142.314667,257.659454 139.676895,254.219070 136.869904,250.064499 
	C135.437210,246.546356 134.173782,243.742401 132.910339,240.938461 
	C133.254120,235.236130 133.597916,229.533783 134.203934,223.326706 
	C135.309952,222.881332 136.153763,222.940704 136.997559,223.000061 
z"/>
<path fill="#EF9901" opacity="1.000000" stroke="none" 
	d="
M132.609573,240.959244 
	C134.173782,243.742401 135.437210,246.546356 136.836853,249.709076 
	C135.299438,247.750122 133.625809,245.432358 131.631683,243.023941 
	C131.224396,242.506027 131.137634,242.078796 131.076660,241.324112 
	C131.504578,240.991119 131.906693,240.985565 132.609573,240.959244 
z"/>
<path fill="#F89505" opacity="1.000000" stroke="none" 
	d="
M137.147873,222.657410 
	C136.153763,222.940704 135.309952,222.881332 134.209320,222.918198 
	C133.956528,220.265701 133.960587,217.516983 133.947784,214.403015 
	C135.079025,213.514938 136.227112,212.992081 137.373825,212.469864 
	C140.379532,215.879211 138.452759,219.091919 137.147873,222.657410 
z"/>
<path fill="#FCF7EB" opacity="1.000000" stroke="none" 
	d="
M120.668640,219.505035 
	C121.011993,218.963882 121.569778,218.639359 122.127563,218.314850 
	C122.254646,218.592468 122.381714,218.870071 122.508789,219.147675 
	C121.966881,219.339005 121.424973,219.530334 120.668640,219.505035 
z"/>
<path fill="#E9A531" opacity="1.000000" stroke="none" 
	d="
M127.549393,204.374924 
	C127.661026,203.944946 127.932625,203.681396 128.221619,203.438568 
	C128.229370,203.432037 128.425430,203.649582 128.533676,203.762619 
	C128.259689,204.023132 127.985703,204.283661 127.549393,204.374924 
z"/>
</svg>